<svg width="154" height="34" viewBox="0 0 154 34" fill="none" xmlns="http://www.w3.org/2000/svg">
<g clip-path="url(#clip0_153_4099)">
<path d="M61.4042 19.6832L58.7703 12.5505C58.6541 12.2421 58.2281 12.2421 58.1506 12.5505L55.478 19.6832C55.4006 19.9145 55.5555 20.1458 55.7879 20.1458H61.133C61.3267 20.1458 61.5204 19.9145 61.4042 19.6832ZM62.6436 23.6929H54.2386C54.0836 23.6929 53.9674 23.77 53.9287 23.9242L52.2632 28.3581C52.2245 28.4737 52.0695 28.5894 51.9533 28.5894H48.3124C48.08 28.5894 47.9251 28.3581 48.0026 28.1267L56.4076 7.26846C56.4464 7.15279 56.6013 7.07568 56.7175 7.07568H60.2034C60.3584 7.07568 60.4746 7.15279 60.5133 7.26846L68.9183 28.1267C68.9958 28.3581 68.8409 28.5894 68.6085 28.5894H64.9676C64.8127 28.5894 64.6965 28.5123 64.6577 28.3581L62.9922 23.9242C62.9147 23.8086 62.7985 23.6929 62.6436 23.6929ZM70.6226 14.4011H73.76C73.9536 14.4011 74.1086 14.5554 74.1086 14.7481V28.2809C74.1086 28.4737 73.9536 28.6279 73.76 28.6279H70.6226C70.4289 28.6279 70.274 28.4737 70.274 28.2809V14.7096C70.274 14.5554 70.4289 14.4011 70.6226 14.4011ZM85.4573 17.6783C85.4573 17.8711 85.3024 18.0253 85.1087 18.0253H85.0312C83.4819 18.0253 82.3587 18.4109 81.6227 19.1434C80.8868 19.876 80.5382 21.1097 80.5382 22.8061V28.2809C80.5382 28.4737 80.3833 28.6279 80.1896 28.6279H77.091C76.8973 28.6279 76.7424 28.4737 76.7424 28.2809V14.7096C76.7424 14.5168 76.8973 14.3626 77.091 14.3626H80.1509C80.3446 14.3626 80.4995 14.5168 80.4995 14.7096V17.3699H80.577C80.9643 16.2518 81.5453 15.4036 82.3199 14.8252C83.1333 14.2469 84.1017 13.9385 85.3024 13.9385H85.4573V17.6783ZM94.0173 17.5627C93.8236 17.5627 93.6687 17.7169 93.6687 17.9096V23.5387C93.6687 24.117 93.7849 24.5411 94.0173 24.7724C94.2497 25.0038 94.637 25.158 95.1793 25.158H95.4891C95.6828 25.158 95.8377 25.3122 95.8377 25.505V28.3195C95.8377 28.5123 95.6828 28.6665 95.4891 28.6665H94.1722C92.7778 28.6665 91.732 28.3195 90.9961 27.6255C90.2602 26.9315 89.8729 25.852 89.8729 24.464V17.9096C89.8729 17.7169 89.7179 17.5627 89.5243 17.5627H87.5876C87.394 17.5627 87.239 17.4084 87.239 17.2157V14.7096C87.239 14.5168 87.394 14.3626 87.5876 14.3626H89.5243C89.7179 14.3626 89.8729 14.2084 89.8729 14.0156V9.00343C89.8729 8.81066 90.0278 8.65644 90.2215 8.65644H93.3588C93.5525 8.65644 93.7074 8.81066 93.7074 9.00343V14.0156C93.7074 14.2084 93.8623 14.3626 94.056 14.3626H96.3025C96.4962 14.3626 96.6511 14.5168 96.6511 14.7096V17.2157C96.6511 17.4084 96.4962 17.5627 96.3025 17.5627H94.0173ZM108.31 24.3869C109.007 23.6543 109.356 22.6905 109.356 21.4953C109.356 20.3001 109.007 19.3362 108.31 18.6036C107.613 17.8711 106.683 17.4855 105.521 17.4855C104.359 17.4855 103.429 17.8711 102.732 18.6036C102.035 19.3362 101.686 20.3001 101.686 21.4953C101.686 22.6905 102.035 23.6543 102.732 24.3869C103.429 25.1194 104.359 25.505 105.521 25.505C106.644 25.505 107.574 25.1194 108.31 24.3869ZM101.105 28.1653C100.06 27.587 99.2462 26.7002 98.6265 25.5821C98.0068 24.464 97.6969 23.076 97.6969 21.4953C97.6969 19.9145 98.0068 18.5651 98.6265 17.4084C99.2462 16.2903 100.06 15.4036 101.105 14.8252C102.151 14.2469 103.313 13.9385 104.553 13.9385C105.676 13.9385 106.605 14.1698 107.419 14.5939C108.194 15.018 108.852 15.6349 109.317 16.406H109.394V14.7481C109.394 14.5554 109.549 14.4011 109.743 14.4011H112.841C113.035 14.4011 113.19 14.5554 113.19 14.7481V28.2809C113.19 28.4737 113.035 28.6279 112.841 28.6279H109.743C109.549 28.6279 109.394 28.4737 109.394 28.2809V26.6231H109.317C108.852 27.3942 108.194 28.0111 107.419 28.4352C106.644 28.8593 105.676 29.0906 104.553 29.0906C103.274 29.052 102.151 28.7436 101.105 28.1653ZM125.972 24.3869C126.669 23.6543 127.018 22.6905 127.018 21.4953C127.018 20.3001 126.669 19.3362 125.972 18.6036C125.275 17.8711 124.345 17.4855 123.183 17.4855C122.021 17.4855 121.092 17.8711 120.394 18.6036C119.697 19.3362 119.31 20.3001 119.31 21.4953C119.31 22.6905 119.658 23.6543 120.394 24.3869C121.092 25.1194 122.021 25.505 123.183 25.505C124.345 25.505 125.275 25.1194 125.972 24.3869ZM121.285 28.3966C120.511 27.9725 119.852 27.3556 119.387 26.5845H119.31V28.2424C119.31 28.4352 119.155 28.5894 118.961 28.5894H115.824C115.63 28.5894 115.475 28.4352 115.475 28.2424V7.42268C115.475 7.2299 115.63 7.07568 115.824 7.07568H118.961C119.155 7.07568 119.31 7.2299 119.31 7.42268V16.406H119.387C119.852 15.6349 120.511 15.018 121.285 14.5939C122.06 14.1698 123.028 13.9385 124.151 13.9385C125.391 13.9385 126.553 14.2469 127.599 14.8252C128.645 15.4036 129.458 16.2903 130.078 17.4084C130.697 18.5265 131.007 19.9145 131.007 21.4953C131.007 23.076 130.697 24.4254 130.078 25.5821C129.458 26.7002 128.645 27.587 127.599 28.1653C126.553 28.7436 125.391 29.052 124.151 29.052C123.028 29.052 122.099 28.8207 121.285 28.3966ZM136.275 28.5894H133.138C132.944 28.5894 132.789 28.4352 132.789 28.2424V7.42268C132.789 7.2299 132.944 7.07568 133.138 7.07568H136.275C136.469 7.07568 136.623 7.2299 136.623 7.42268V28.2809C136.585 28.4352 136.469 28.5894 136.275 28.5894ZM143.634 17.6783C143.131 18.0639 142.782 18.6422 142.588 19.4133C142.55 19.6061 142.705 19.8374 142.937 19.8374H148.863C149.057 19.8374 149.25 19.6446 149.212 19.4518C149.096 18.7193 148.786 18.1795 148.282 17.7169C147.701 17.2157 146.926 16.9458 145.997 16.9458C145.029 16.9843 144.254 17.2157 143.634 17.6783ZM151.226 15.9048C152.427 17.2157 153.046 19.1049 153.046 21.4953V21.8808C153.046 22.0736 152.891 22.2278 152.698 22.2278H142.782C142.588 22.2278 142.395 22.4206 142.433 22.6134C142.588 23.5001 142.976 24.2327 143.634 24.7339C144.37 25.3508 145.3 25.6592 146.384 25.6592C147.817 25.6592 149.134 25.1194 150.374 24.0013C150.529 23.8471 150.761 23.8857 150.877 24.0784L152.388 26.2375C152.504 26.3918 152.465 26.5845 152.349 26.7002C151.613 27.3556 150.8 27.8954 149.87 28.3195C148.863 28.7822 147.701 29.052 146.384 29.052C144.835 29.052 143.479 28.7436 142.356 28.1267C141.194 27.5098 140.303 26.6231 139.683 25.4664C139.064 24.3483 138.715 22.9989 138.715 21.5338C138.715 20.0302 139.025 18.7193 139.645 17.5627C140.264 16.406 141.117 15.5192 142.24 14.9024C143.363 14.2855 144.641 13.9385 146.113 13.9385C148.321 13.9385 150.025 14.5939 151.226 15.9048ZM74.4959 9.38898C74.4959 10.6613 73.4501 11.7023 72.1719 11.7023C70.8937 11.7023 69.8479 10.6613 69.8479 9.38898C69.8479 8.11667 70.8937 7.07568 72.1719 7.07568C73.4501 7.07568 74.4959 8.11667 74.4959 9.38898Z" fill="#333333"/>
<path d="M17.7944 1.02237L2.95965 7.11406C2.14626 7.46106 2.14626 8.61771 2.95965 8.9647L17.8718 14.8636C19.1887 15.3648 20.6219 15.3648 21.9388 14.8636L36.851 8.9647C37.6643 8.61771 37.7031 7.46106 36.851 7.11406L22.0162 1.02237C20.6606 0.444042 19.15 0.444042 17.7944 1.02237Z" fill="#FCB400"/>
<path d="M21.2402 18.0636V32.753C21.2402 33.447 21.9374 33.9482 22.5959 33.6784L39.2123 27.2782C39.5996 27.124 39.832 26.777 39.832 26.3529V11.6634C39.832 10.9694 39.1348 10.4682 38.4764 10.7381L21.86 17.1383C21.4726 17.2925 21.2402 17.6395 21.2402 18.0636Z" fill="#18BFFF"/>
<path d="M0.0136719 11.7023V25.505C0.0136719 26.2376 0.865796 26.7002 1.52426 26.3918L11.9047 21.4182L12.4082 21.1868L0.323535 11.0469C0.168604 11.2011 0.0136719 11.4324 0.0136719 11.7023Z" fill="#F82B60"/>
<path d="M17.2912 17.0229L1.48816 10.777C1.1783 10.6613 0.8297 10.6999 0.597302 10.8541C0.519836 10.8926 0.403638 10.9697 0.326172 11.0469L12.4108 21.1868L17.3299 18.835C18.1433 18.4494 18.0658 17.3313 17.2912 17.0229Z" fill="#BA1E45"/>
</g>
<defs>
<clipPath id="clip0_153_4099">
<rect width="153.034" height="33.1573" fill="white" transform="translate(-0.00195312 0.598145)"/>
</clipPath>
</defs>
</svg>
