<svg width="131" height="33" viewBox="0 0 131 33" fill="none" xmlns="http://www.w3.org/2000/svg">
<g clip-path="url(#clip0_153_4106)">
<path fill-rule="evenodd" clip-rule="evenodd" d="M0.0234375 7.38811L14.2256 0.0341797L28.5926 7.38811L14.2256 14.808L0.0234375 7.38811ZM85.3354 10.9826V10.8177C85.3354 8.37743 86.7523 7.61895 89.1578 7.78384V3.33191C83.3912 3.00213 80.6562 5.87116 80.6562 10.8177V10.9826H78.0531V15.4016H80.6562V28.8233H85.3024V15.4016H88.0704H89.1578H90.6736V28.8233H95.3197V15.4016H99.1421V10.9826H95.3197V10.8177C95.3197 8.37743 96.7367 7.61895 99.1421 7.78384V3.33191C93.3756 2.96916 90.6406 5.87116 90.6406 10.7848V10.9497H89.1248H88.0374H85.3354V10.9826ZM52.7461 15.8303C54.229 14.6431 55.1187 12.9613 55.1187 10.8177C55.1187 6.62964 51.7246 3.79359 47.4409 3.79359H37.4895V28.7904H48.2318C52.6143 28.7904 56.1402 25.8224 56.1402 21.5354C56.1072 18.9631 54.7892 16.9845 52.7461 15.8303ZM47.4739 8.41041C49.0885 8.41041 50.1759 9.59759 50.1759 11.1805C50.1759 12.7634 49.0226 13.9506 47.4739 13.9506H42.4982V8.41041H47.4739ZM48.2318 24.2065H42.4982V18.3366H48.2318C49.9453 18.3366 51.1645 19.5897 51.1645 21.2715C51.1645 22.9534 49.9453 24.2065 48.2318 24.2065ZM70.6719 10.9497V20.579C70.6719 23.6789 68.9584 24.998 66.6847 24.998C64.5758 24.998 63.093 23.7448 63.093 21.3045V10.9497H58.4468V21.9311C58.4468 26.6798 61.4124 29.318 65.3007 29.318C67.7392 29.318 69.6174 28.4276 70.6719 26.8117V28.8233H75.3181V10.9497H70.6719ZM118.518 21.7662H104.876C105.568 24.1076 107.512 25.1299 109.95 25.1299C111.763 25.1299 113.245 24.3714 114.003 23.3491L117.76 25.4926C116.079 27.933 113.377 29.318 109.884 29.318C103.821 29.318 99.9989 25.1958 99.9989 19.8865C99.9989 14.5442 103.854 10.455 109.555 10.455C114.893 10.455 118.715 14.6431 118.715 19.8865C118.682 20.579 118.617 21.1726 118.518 21.7662ZM109.522 14.6101C107.018 14.6101 105.304 15.9292 104.777 18.2047H114.003C113.443 15.6324 111.499 14.6101 109.522 14.6101ZM125.438 14.0495V10.9826H120.791V28.8563H125.438V20.2822C125.438 16.5228 128.502 15.4346 130.941 15.7314V10.6199C128.634 10.6199 126.36 11.6092 125.438 14.0495ZM14.2256 27.4383L4.53782 22.1619L0.0234375 24.6023L14.2256 32.3189L28.5926 24.6023L24.0123 22.1619L14.2256 27.4383ZM4.53782 13.8846L14.2256 18.6663L24.0452 13.8846L28.6255 16.1271L14.2256 23.0853L0.0234375 16.0941L4.53782 13.8846Z" fill="black"/>
</g>
<defs>
<clipPath id="clip0_153_4106">
<rect width="130.884" height="32.2848" fill="white" transform="translate(0.03125 0.0344238)"/>
</clipPath>
</defs>
</svg>
