<svg width="169" height="35" viewBox="0 0 169 35" fill="none" xmlns="http://www.w3.org/2000/svg">
<g clip-path="url(#clip0_153_4131)">
<path d="M19.9107 7.08371L10.1321 13.3144L19.9107 19.5451L10.1321 25.7757L0.353516 19.5114L10.1321 13.2807L0.353516 7.08371L10.1321 0.853027L19.9107 7.08371ZM10.0815 27.7797L19.8601 21.549L29.6387 27.7797L19.8601 34.0103L10.0815 27.7797ZM19.9107 19.5114L29.6893 13.2807L19.9107 7.08371L29.6387 0.853027L39.4173 7.08371L29.6387 13.3144L39.4173 19.5451L29.6387 25.7757L19.9107 19.5114Z" fill="#0061FF"/>
<path d="M47.0645 7.08364H54.9716C60.0127 7.08364 64.177 9.9969 64.177 16.6486V18.0463C64.177 24.7485 60.2824 27.7628 55.1234 27.7628H47.0645V7.08364ZM51.4817 10.8389V23.9907H54.8705C57.7366 23.9907 59.6586 22.1215 59.6586 17.9621V16.8675C59.6586 12.7081 57.6355 10.8389 54.7187 10.8389H51.4817ZM66.5205 11.041H70.061L70.6342 14.9309C71.3086 12.2871 73.0283 10.8726 76.1474 10.8726H77.2432V15.3351H75.4224C71.8313 15.3351 70.9546 16.5812 70.9546 20.1175V27.8133H66.5879V11.041H66.5205ZM78.1199 19.7639V19.2924C78.1199 13.6848 81.711 10.62 86.6003 10.62C91.5908 10.62 95.0807 13.6848 95.0807 19.2924V19.7639C95.0807 25.2705 91.692 28.2343 86.6003 28.2343C81.1884 28.1838 78.1199 25.2873 78.1199 19.7639ZM90.6129 19.7134V19.2924C90.6129 16.1771 89.045 14.3079 86.5498 14.3079C84.1051 14.3079 82.4866 16.0255 82.4866 19.2924V19.7134C82.4866 22.7277 84.0545 24.4453 86.5498 24.4453C89.045 24.3948 90.6129 22.7277 90.6129 19.7134ZM97.3737 11.041H101.015L101.437 14.2068C102.314 12.085 104.185 10.62 106.95 10.62C111.215 10.62 114.031 13.6848 114.031 19.3598V19.8313C114.031 25.3378 110.912 28.2511 106.95 28.2511C104.303 28.2511 102.482 27.0555 101.589 25.1358V33.6061H97.3231L97.3737 11.041ZM109.597 19.7134V19.3429C109.597 16.0087 107.877 14.3584 105.584 14.3584C103.14 14.3584 101.521 16.2276 101.521 19.3429V19.6629C101.521 22.6267 103.089 24.4959 105.534 24.4959C108.046 24.4453 109.597 22.8456 109.597 19.7134ZM120.488 24.7148L120.117 27.7796H116.374V5.43335H120.64V14.0047C121.584 11.8156 123.456 10.62 126.103 10.62C130.115 10.6705 133.082 13.4322 133.082 18.9893V19.5113C133.082 25.0684 130.267 28.2511 126.001 28.2511C123.186 28.1837 121.365 26.8871 120.488 24.7148ZM128.598 19.5113V19.0903C128.598 16.0255 126.929 14.3079 124.585 14.3079C122.191 14.3079 120.522 16.2276 120.522 19.1408V19.5113C120.522 22.6267 122.14 24.4453 124.535 24.4453C127.097 24.4453 128.598 22.8456 128.598 19.5113ZM134.954 19.7639V19.2924C134.954 13.6848 138.545 10.62 143.434 10.62C148.425 10.62 151.915 13.6848 151.915 19.2924V19.7639C151.915 25.2705 148.475 28.2343 143.434 28.2343C138.022 28.1838 134.954 25.2873 134.954 19.7639ZM147.481 19.7134V19.2924C147.481 16.1771 145.913 14.3079 143.417 14.3079C140.973 14.3079 139.354 16.0255 139.354 19.2924V19.7134C139.354 22.7277 140.922 24.4453 143.417 24.4453C145.929 24.3948 147.481 22.7277 147.481 19.7134ZM157.63 19.0903L151.746 11.041H156.787L160.176 16.076L163.615 11.041H168.606L162.637 19.0398L168.926 27.7796H163.986L160.142 22.2225L156.399 27.7796H151.24L157.63 19.0903Z" fill="black"/>
</g>
<defs>
<clipPath id="clip0_153_4131">
<rect width="168.597" height="33.1573" fill="white" transform="translate(0.345703 0.853027)"/>
</clipPath>
</defs>
</svg>
