<svg width="183" height="41" viewBox="0 0 183 41" fill="none" xmlns="http://www.w3.org/2000/svg">
<g clip-path="url(#clip0_133_79)">
<path d="M32.9829 5.00391H12.5137V35.3833H32.9829V5.00391Z" fill="white"/>
<path d="M17.5239 0.799072C15.3514 0.799072 13.2002 1.22733 11.1931 2.05938C9.18599 2.89143 7.36233 4.11098 5.82627 5.64838C4.29021 7.18578 3.07183 9.01091 2.24072 11.0196C1.4096 13.0282 0.982031 15.181 0.982422 17.355V40.0643H23.676C28.0634 40.0643 32.2711 38.3204 35.3737 35.2162C38.4763 32.112 40.2197 27.9017 40.2205 23.5114V0.799072H17.5239ZM30.9239 7.76592C30.9243 8.47837 30.7844 9.18391 30.5122 9.84224C30.24 10.5006 29.8409 11.0988 29.3376 11.6027C28.8343 12.1066 28.2367 12.5064 27.579 12.7791C26.9213 13.0518 26.2163 13.1922 25.5044 13.1922H19.6918V17.8467H27.5441V23.2938H19.7424V34.5129H13.2955V6.3505H19.6918V11.4579C19.7723 10.0766 20.3774 8.77825 21.3833 7.82876C22.3891 6.87927 23.7196 6.35043 25.1024 6.3505H30.9328L30.9239 7.76592Z" fill="#0075DD"/>
<path d="M62.3105 15.2931V30.0016H66.1489V21.956C66.1489 21.5001 66.1489 20.1115 66.7147 19.45C67.0096 19.1211 67.374 18.862 67.7814 18.6914C68.1888 18.5208 68.629 18.443 69.0701 18.4637L69.2309 18.4786V14.8253H69.0969C67.9653 14.721 66.8874 15.1531 66.4467 15.6149L66.2204 15.8354C66.0856 15.9598 65.9574 16.0911 65.8362 16.2288V15.305L62.3105 15.2931Z" fill="black"/>
<path d="M100.982 30.0013V21.926C100.982 19.7298 101.998 18.4575 103.772 18.4336C104.105 18.4205 104.436 18.4753 104.746 18.5947C105.056 18.7141 105.339 18.8955 105.577 19.1279C106.187 19.7239 106.512 20.6804 106.512 21.8753V30.0013H110.288V20.8413C110.288 17.6201 108.105 15.1051 105.095 14.8608C103.424 14.7088 102.048 15.1349 101.003 16.1332L100.97 16.166V10.4238H97.1855L97.2153 30.0013H100.982Z" fill="black"/>
<path d="M122.096 19.3042L121.977 19.2624L122.102 19.185C123.636 18.2046 124.136 16.2051 123.829 14.8344C123.234 11.9917 120.977 10.4272 117.472 10.4272H112.264L112.29 30.0047H117.761C121.822 30.0047 124.339 28.2705 125.035 24.9927C125.467 22.9604 124.276 20.0312 122.096 19.3042ZM116.126 14.2087H117.808C118.457 14.2087 119.979 14.3696 120.045 15.8476C120.063 16.0832 120.032 16.32 119.954 16.543C119.876 16.7661 119.753 16.9706 119.592 17.1438C119.014 17.7398 118.014 17.8649 117.278 17.8649H116.126V14.2087ZM120.703 25.3115C120.131 25.9254 119.047 26.2353 117.475 26.2353H116.156V21.5688H118.222C119.526 21.5688 121.084 22.132 121.179 23.7203C121.219 24.0042 121.197 24.2933 121.114 24.5679C121.032 24.8425 120.892 25.0961 120.703 25.3115Z" fill="black"/>
<path d="M138.96 17.1135C138.24 16.3935 137.382 15.8253 136.439 15.4425C135.495 15.0596 134.484 14.8699 133.466 14.8846C131.432 14.927 129.494 15.7624 128.066 17.213C126.637 18.6636 125.831 20.6148 125.819 22.6513C125.806 24.6878 126.588 26.6487 127.999 28.1166C129.41 29.5845 131.337 30.4436 133.371 30.5108H133.544C135.569 30.5064 137.51 29.7021 138.945 28.273C139.696 27.5512 140.294 26.6853 140.702 25.7272C141.111 24.769 141.322 23.7382 141.324 22.6964C141.325 21.6546 141.117 20.6232 140.71 19.664C140.304 18.7047 139.709 17.8373 138.96 17.1135ZM133.681 26.8367C133.149 26.8514 132.621 26.7578 132.127 26.5616C131.633 26.3654 131.184 26.0707 130.807 25.6954C130.404 25.3066 130.083 24.841 129.863 24.3262C129.643 23.8114 129.527 23.2577 129.524 22.6977C129.515 21.6314 129.923 20.6037 130.66 19.8343C131.398 19.0648 132.407 18.6145 133.472 18.5796H133.559C134.622 18.5856 135.641 19.0076 136.398 19.7554C137.155 20.5032 137.589 21.5174 137.608 22.5815C137.636 23.6629 137.242 24.7126 136.508 25.5072C135.775 26.3019 134.76 26.7788 133.681 26.8367Z" fill="black"/>
<path d="M155.413 17.1136C154.693 16.393 153.836 15.8245 152.892 15.4416C151.949 15.0587 150.938 14.8693 149.919 14.8846C147.885 14.9271 145.947 15.7625 144.519 17.2131C143.09 18.6637 142.284 20.6149 142.272 22.6514C142.259 24.6878 143.042 26.6487 144.452 28.1167C145.863 29.5846 147.79 30.4436 149.824 30.5109H149.997C152.022 30.5071 153.963 29.7027 155.399 28.273C156.148 27.5503 156.745 26.6836 157.152 25.7249C157.559 24.7662 157.769 23.7351 157.769 22.6933C157.769 21.6515 157.559 20.6204 157.152 19.6617C156.745 18.703 156.148 17.8363 155.399 17.1136H155.413ZM152.96 25.5316C152.601 25.9293 152.166 26.2506 151.68 26.4763C151.195 26.7021 150.669 26.8277 150.134 26.8457C149.603 26.8601 149.074 26.7663 148.58 26.5701C148.086 26.3739 147.637 26.0794 147.26 25.7044C146.858 25.3156 146.537 24.8501 146.316 24.3353C146.096 23.8205 145.98 23.2668 145.977 22.7067C145.968 21.6404 146.376 20.6128 147.113 19.8433C147.851 19.0738 148.86 18.6235 149.925 18.5886H150.012C151.073 18.5961 152.089 19.0176 152.844 19.7633C153.599 20.509 154.034 21.5201 154.056 22.5816C154.092 23.6708 153.698 24.7305 152.96 25.5316Z" fill="black"/>
<path d="M162.474 23.3357L162.805 23.0496H163.1L167.361 30.076H171.452L165.64 20.4542L171.387 15.2663H166.241L162.513 18.6216H162.474V10.3525H158.865V30.076H162.474V23.3357Z" fill="black"/>
<path d="M182.215 25.6094C182.215 22.4776 179.669 21.6731 177.623 21.0235C176.334 20.6152 175.22 20.2636 175.22 19.4382C175.22 18.869 175.694 18.5144 176.459 18.5144C176.913 18.5058 177.355 18.6638 177.701 18.9584L177.858 19.1134L180.372 16.6372L180.208 16.4762C179.724 16.0099 179.151 15.6459 178.523 15.4058C177.895 15.1657 177.226 15.0545 176.554 15.0787C173.541 15.0787 171.596 16.8279 171.596 19.5335C171.596 22.7607 174.08 23.4073 176.078 23.9407C177.48 24.3102 178.591 24.6022 178.591 25.6094C178.591 26.4706 177.778 27.0725 176.62 27.0725C175.461 27.0725 174.744 26.4766 174.744 25.5468V25.3234H171.021V25.5468C171.021 28.4224 173.374 30.5083 176.617 30.5083C179.86 30.5083 182.215 28.4492 182.215 25.6094Z" fill="black"/>
<path d="M53.8472 14.2946V18.5588H60.2047V22.3223H53.874V30.0013H50.0059V10.4238H60.5948V14.2946H53.8472Z" fill="black"/>
<path d="M84.6546 22.7338C84.6546 17.9214 81.9746 14.9326 77.6331 14.9326C73.2111 14.9326 69.998 18.0793 69.998 22.412C69.998 26.986 73.2379 30.4397 77.5378 30.4397C78.6663 30.4459 79.7843 30.2216 80.8231 29.7804C81.862 29.3393 82.8 28.6906 83.5797 27.874L83.6869 27.7608L81.0069 25.3948L80.9086 25.511C80.5033 26.014 79.9896 26.4187 79.4058 26.6948C78.8221 26.9709 78.1834 27.1112 77.5378 27.1052C75.5367 27.1052 74.0597 25.815 73.6816 23.741L73.625 23.443H84.6427L84.6546 22.7338ZM73.9347 20.195L74.0419 19.9983C74.7059 18.86 75.9208 18.2343 77.4603 18.2343C79.0892 18.2343 80.3369 18.9792 80.7746 20.195H73.9347Z" fill="black"/>
<path d="M91.6983 21.0264C90.409 20.6181 89.2953 20.2665 89.2953 19.4381C89.2953 18.869 89.7717 18.5144 90.537 18.5144C90.9912 18.5058 91.4329 18.6637 91.7787 18.9584L91.9336 19.1163L94.4468 16.6371L94.2831 16.4791C93.7998 16.0122 93.2274 15.6476 92.6002 15.407C91.9729 15.1663 91.3036 15.0547 90.6323 15.0786C87.6188 15.0786 85.6713 16.8278 85.6713 19.5335C85.6713 22.7606 88.1578 23.4072 90.1529 23.9406C91.5584 24.3101 92.6661 24.6022 92.6661 25.6093C92.6661 26.4705 91.8562 27.0724 90.6948 27.0724C89.5335 27.0724 88.8188 26.4765 88.8188 25.5468V25.3233H85.0996V25.5468C85.0996 28.4223 87.452 30.5112 90.6948 30.5112C93.9376 30.5112 96.2901 28.4491 96.2901 25.6093C96.2901 22.4775 93.7441 21.673 91.6983 21.0264Z" fill="black"/>
</g>
<defs>
<clipPath id="clip0_133_79">
<rect width="181.224" height="39.2652" fill="white" transform="translate(0.982422 0.799072)"/>
</clipPath>
</defs>
</svg>
