<svg width="111" height="43" viewBox="0 0 111 43" fill="none" xmlns="http://www.w3.org/2000/svg">
<g clip-path="url(#clip0_153_4110)">
<path d="M98.5702 6.36914C91.7682 6.36914 86.221 11.9096 86.221 18.7691C86.221 25.5957 91.7682 31.1691 98.5702 31.1691C105.372 31.1691 110.919 25.5957 110.919 18.7691C110.919 11.9096 105.372 6.36914 98.5702 6.36914ZM98.5702 25.2659C94.9711 25.2659 92.0654 22.3308 92.0654 18.7361C92.0654 15.1415 94.9711 12.2064 98.5702 12.2064C102.136 12.2064 105.075 15.1415 105.075 18.7361C105.075 22.3308 102.136 25.2659 98.5702 25.2659ZM62.183 16.2298L60.0368 15.1415C59.1122 14.6798 58.5179 14.317 58.2867 14.0532C58.0556 13.8223 57.9235 13.4925 57.9235 13.1957C57.9235 12.767 58.1216 12.4372 58.4849 12.1404C58.8481 11.8436 59.3764 11.7117 60.0368 11.7117C61.2585 11.7117 62.5792 12.4372 64.0651 13.9213L67.6972 10.2606C66.8057 9.04042 65.617 8.05106 64.2632 7.3585C62.9424 6.69893 61.4566 6.33616 59.9707 6.36914C57.7584 6.36914 55.9093 7.02872 54.4895 8.34786C53.0697 9.66701 52.3433 11.25 52.3433 13.1298C52.3433 15.9989 54.2254 18.4064 58.0226 20.3191L60.0037 21.3085C61.7207 22.1659 62.5792 23.0564 62.5792 23.9798C62.5792 24.4744 62.3481 24.9032 61.8858 25.2989C61.4236 25.6617 60.7962 25.8595 60.0037 25.8595C59.2773 25.8595 58.4518 25.5957 57.5273 25.101C56.6028 24.6064 55.7773 23.9468 55.1169 23.1553L51.4848 27.1127C53.532 29.784 56.2726 31.1361 59.6735 31.1361C62.249 31.1361 64.2962 30.4436 65.8151 29.0255C67.334 27.6404 68.1265 25.8925 68.1265 23.7819C68.1265 22.1989 67.6972 20.8468 66.8717 19.6596C66.0132 18.5053 64.4613 17.384 62.183 16.2298ZM25.5316 28.4319V6.86382H19.6542V8.31488C17.6731 7.02872 15.3617 6.36914 13.0173 6.36914C6.2484 6.36914 0.701172 11.9096 0.701172 18.7361C0.701172 25.5627 6.24841 31.1361 13.0504 31.1361C15.3617 31.1361 17.64 30.4766 19.6212 29.2563C19.6212 29.4542 19.6212 29.6191 19.6212 29.7181C19.6212 33.3127 16.7155 36.2478 13.1164 36.2478C11.8947 36.2478 10.706 35.8851 9.68241 35.2585L6.77671 40.3372C8.69183 41.4914 10.8711 42.118 13.1164 42.118C19.9184 42.118 25.5316 36.5446 25.5316 29.7181C25.5316 29.4542 25.5647 28.6957 25.5316 28.4319ZM13.0504 25.2659C9.48429 25.2659 6.54558 22.3308 6.54558 18.7361C6.54558 15.1415 9.45127 12.2064 13.0504 12.2064C16.6495 12.2064 19.5552 15.1415 19.5552 18.7361C19.5552 22.3308 16.6164 25.2659 13.0504 25.2659ZM48.8762 6.83084H42.9988V18.6042C42.9988 20.2861 42.9988 23.1553 41.7771 24.4085C41.1828 25.0021 40.5554 25.5298 39.2016 25.5298C37.8478 25.5298 37.1874 25.0021 36.5931 24.4085C35.3714 23.1883 35.3714 20.2861 35.3714 18.6042V6.83084H29.494V18.5713C29.4609 21.0117 29.4609 25.4968 32.3996 28.4649C34.1166 30.2127 36.1969 31.1032 39.1686 31.1032C42.1403 31.1032 44.2205 30.2127 45.9375 28.4649C48.8762 25.4968 48.8763 20.9787 48.8432 18.5713L48.8762 6.83084ZM82.2587 24.2106C81.7964 24.5734 80.6408 25.3649 79.353 25.2C78.2964 25.0681 77.4379 24.2766 77.3058 21.6713V11.8766H84.2399V6.83084H77.3058V0.235107H71.4284V1.52128V20.8798C71.4284 23.9468 72.1878 31.1032 79.353 31.1032C82.9521 31.0372 85.1644 29.0915 86.0889 28.3L86.221 28.201L82.688 23.8478C82.6549 23.9138 82.4238 24.1117 82.2587 24.2106Z" fill="#F45D48"/>
</g>
<defs>
<clipPath id="clip0_153_4110">
<rect width="110.218" height="41.8829" fill="white" transform="translate(0.677734 0.235352)"/>
</clipPath>
</defs>
</svg>
