<svg width="120" height="36" viewBox="0 0 120 36" fill="none" xmlns="http://www.w3.org/2000/svg">
<g clip-path="url(#clip0_133_2455)">
<path d="M12.9935 6.323V15.8649H4.22738V6.323H0.0683594V29.1008H4.22851V19.8685H12.9924V29.1008H17.1537V6.323H12.9935ZM30.4695 21.7386C30.4695 22.6516 30.1068 23.5272 29.4613 24.1728C28.8157 24.8183 27.9401 25.181 27.0271 25.181C26.1141 25.181 25.2386 24.8183 24.593 24.1728C23.9474 23.5272 23.5847 22.6516 23.5847 21.7386V11.9817H19.6385V21.7386C19.6385 23.6963 20.4162 25.5737 21.8004 26.958C23.1847 28.3423 25.0622 29.1199 27.0198 29.1199C28.9774 29.1199 30.8549 28.3423 32.2392 26.958C33.6234 25.5737 34.4011 23.6963 34.4011 21.7386V11.9817H30.4695V21.7386ZM59.7099 12.9871C59.7099 10.9864 61.0328 10.3525 62.4818 10.3525C63.6505 10.3525 65.1929 11.242 66.2029 12.3206L68.7868 9.27394C67.4965 7.52882 64.8799 6.323 62.7374 6.323C58.4556 6.323 55.3595 8.83034 55.3595 12.9871C55.3595 20.6994 64.7854 18.2518 64.7854 22.5684C64.7854 23.8992 63.4929 25.0746 62.0134 25.0746C59.6795 25.0746 58.9229 23.9341 57.851 22.7271L54.9823 25.7096C56.8175 27.9614 59.0805 29.1053 61.7905 29.1053C65.8583 29.1053 69.1302 26.5675 69.1302 22.5999C69.1302 14.0387 59.7031 16.6992 59.7031 12.9871M118.024 25.4619C115.692 25.4619 115.029 24.4531 115.029 22.9084V16.0687H118.654V12.6032H115.029V8.03097L111.028 9.82675V23.7585C111.028 27.3219 113.487 29.1177 116.858 29.1177C117.387 29.1267 117.916 29.0839 118.436 28.9916L119.412 25.3977C118.972 25.4281 118.466 25.4585 118.024 25.4585M45.4911 12.0954C43.5365 12.0954 42.172 12.6629 40.8524 13.9565V6.45923H36.9006V20.356C36.9006 25.5576 40.661 29.1222 44.8876 29.1222C49.5758 29.1222 53.6999 25.4946 53.6999 20.6105C53.6999 15.7872 49.9045 12.0988 45.4911 12.0988M45.4663 25.1444C44.8773 25.1444 44.2941 25.0284 43.75 24.803C43.2058 24.5776 42.7114 24.2473 42.295 23.8308C41.8785 23.4143 41.5481 22.9199 41.3227 22.3758C41.0974 21.8316 40.9813 21.2484 40.9813 20.6595C40.9813 20.0705 41.0974 19.4873 41.3227 18.9431C41.5481 18.399 41.8785 17.9046 42.295 17.4881C42.7114 17.0716 43.2058 16.7413 43.75 16.5159C44.2941 16.2905 44.8773 16.1745 45.4663 16.1745C46.6558 16.1745 47.7966 16.647 48.6377 17.4881C49.4787 18.3292 49.9513 19.47 49.9513 20.6595C49.9513 21.8489 49.4787 22.9897 48.6377 23.8308C47.7966 24.6719 46.6558 25.1444 45.4663 25.1444ZM88.4098 20.4033C88.4098 15.5102 84.2947 11.8916 79.5975 11.8916C75.3721 11.8916 71.6105 15.4551 71.6105 20.6578V34.5625H75.5623V27.055C76.8796 28.3464 78.2465 28.9161 80.1987 28.9161C84.6122 28.9161 88.4098 25.2277 88.4098 20.4033ZM84.6674 20.3538C84.6674 21.5433 84.1949 22.684 83.3538 23.5251C82.5127 24.3662 81.3719 24.8387 80.1824 24.8387C78.9929 24.8387 77.8522 24.3662 77.0111 23.5251C76.17 22.684 75.6974 21.5433 75.6974 20.3538C75.6974 19.1643 76.17 18.0235 77.0111 17.1824C77.8522 16.3413 78.9929 15.8688 80.1824 15.8688C81.3719 15.8688 82.5127 16.3413 83.3538 17.1824C84.1949 18.0235 84.6674 19.1643 84.6674 20.3538Z" fill="#33475B"/>
<path d="M101.173 11.7001V7.72909C101.698 7.48384 102.142 7.09459 102.454 6.60665C102.767 6.11871 102.934 5.55216 102.936 4.97293V4.88173C102.936 3.1929 101.567 1.82382 99.8785 1.82382H99.7873C98.9763 1.82382 98.1985 2.146 97.625 2.71946C97.0516 3.29293 96.7294 4.07072 96.7294 4.88173V4.97293C96.7321 5.55216 96.8992 6.11871 97.2113 6.60665C97.5235 7.09459 97.9678 7.48384 98.4925 7.72909V11.7001C96.9844 11.931 95.564 12.5563 94.3752 13.5128L83.4845 5.03035C83.5622 4.75 83.6027 4.46177 83.6072 4.17242C83.6086 3.49093 83.4077 2.82435 83.0302 2.257C82.6526 1.68965 82.1153 1.24701 81.4862 0.985086C80.857 0.723159 80.1643 0.653705 79.4957 0.785511C78.8271 0.917317 78.2125 1.24446 77.7299 1.72556C77.2472 2.20666 76.918 2.8201 76.784 3.48829C76.6501 4.15649 76.7172 4.84941 76.9771 5.47941C77.237 6.10941 77.6779 6.64819 78.244 7.02759C78.8101 7.407 79.476 7.60998 80.1575 7.61087C80.7537 7.60807 81.3388 7.4489 81.8542 7.14926L92.5783 15.4943C91.6149 16.9497 91.1123 18.6616 91.136 20.4068C91.1597 22.152 91.7086 23.8496 92.7111 25.2783L89.4494 28.5411C89.1858 28.4568 88.9111 28.412 88.6343 28.4082C88.0749 28.4087 87.5282 28.5749 87.0632 28.886C86.5983 29.1971 86.236 29.639 86.0221 30.1559C85.8083 30.6728 85.7524 31.2415 85.8617 31.7901C85.9709 32.3387 86.2403 32.8427 86.6359 33.2382C87.0314 33.6338 87.5354 33.9032 88.084 34.0124C88.6326 34.1217 89.2013 34.0658 89.7182 33.852C90.2352 33.6381 90.6771 33.2758 90.9881 32.8109C91.2992 32.3459 91.4654 31.7992 91.4659 31.2398C91.4623 30.963 91.4175 30.6883 91.333 30.4247L94.5598 27.1968C95.6121 28.0068 96.8358 28.5653 98.1372 28.8294C99.4386 29.0935 100.783 29.0562 102.068 28.7204C103.353 28.3846 104.544 27.7591 105.549 26.892C106.555 26.0248 107.349 24.939 107.87 23.7176C108.391 22.4962 108.626 21.1718 108.556 19.8457C108.487 18.5196 108.114 17.227 107.468 16.067C106.822 14.907 105.918 13.9104 104.827 13.1535C103.736 12.3965 102.486 11.8994 101.173 11.7001ZM99.8357 24.7604C99.2394 24.7768 98.6458 24.6735 98.09 24.4566C97.5343 24.2397 97.0276 23.9136 96.6 23.4976C96.1724 23.0816 95.8325 22.5842 95.6005 22.0346C95.3684 21.485 95.2488 20.8945 95.2488 20.2979C95.2488 19.7013 95.3684 19.1108 95.6005 18.5612C95.8325 18.0117 96.1724 17.5142 96.6 17.0982C97.0276 16.6822 97.5343 16.3561 98.09 16.1392C98.6458 15.9223 99.2394 15.8191 99.8357 15.8355C100.992 15.8759 102.087 16.3634 102.89 17.1952C103.694 18.0269 104.143 19.1381 104.144 20.2946C104.144 21.4511 103.696 22.5627 102.893 23.3953C102.09 24.2279 100.996 24.7165 99.8402 24.7581" fill="#FF7A59"/>
</g>
<defs>
<clipPath id="clip0_133_2455">
<rect width="119.344" height="34.9024" fill="white" transform="translate(0.154297 0.725586)"/>
</clipPath>
</defs>
</svg>
