<svg width="132" height="36" viewBox="0 0 132 36" fill="none" xmlns="http://www.w3.org/2000/svg">
<g clip-path="url(#clip0_133_2470)">
<path d="M25.1121 17.2099C25.3691 17.1789 25.6154 17.1782 25.8414 17.2099C25.9723 16.9092 25.9948 16.3916 25.8773 15.8283C25.702 14.9904 25.4655 14.4834 24.9763 14.5622C24.4871 14.6411 24.4688 15.2481 24.6441 16.086C24.7426 16.5571 24.9172 16.9606 25.1121 17.2099Z" fill="black"/>
<path d="M20.907 17.8731C21.2575 18.0266 21.4722 18.1287 21.5567 18.04C21.6109 17.9844 21.5947 17.8787 21.5109 17.7421C21.3385 17.4598 20.9823 17.1739 20.6057 17.0126C19.8343 16.6803 18.9143 16.7908 18.2048 17.3013C17.9704 17.4731 17.7487 17.7111 17.7804 17.8555C17.7909 17.902 17.8254 17.9372 17.9078 17.9492C18.1006 17.971 18.7757 17.6302 19.5534 17.5823C20.1025 17.5485 20.5572 17.7196 20.907 17.8731Z" fill="black"/>
<path d="M20.1972 18.2751C19.7411 18.347 19.4898 18.4977 19.3279 18.6378C19.1899 18.7582 19.1048 18.8913 19.1055 18.9849L19.1407 19.068L19.216 19.0969C19.3187 19.0969 19.5496 19.0047 19.5496 19.0047C20.1845 18.7772 20.6033 18.8047 21.0179 18.8519C21.2474 18.8779 21.3558 18.892 21.4058 18.8131C21.4205 18.7906 21.4388 18.742 21.3931 18.6674C21.2861 18.4941 20.8258 18.2012 20.1979 18.2759L20.1972 18.2751Z" fill="black"/>
<path d="M23.6878 19.751C23.9975 19.9031 24.3382 19.8432 24.4494 19.6172C24.5607 19.3911 24.3995 19.0848 24.0898 18.9327C23.78 18.7806 23.4394 18.8405 23.3282 19.0665C23.2169 19.2926 23.3781 19.5989 23.6878 19.751Z" fill="black"/>
<path d="M25.6809 18.0113C25.4296 18.0071 25.2206 18.2831 25.215 18.6288C25.2093 18.9739 25.4085 19.2569 25.6598 19.2612C25.9111 19.2654 26.1201 18.9893 26.1258 18.6443C26.1314 18.2993 25.9322 18.0162 25.6809 18.0113Z" fill="black"/>
<path d="M8.79013 24.2347C8.72749 24.1566 8.62472 24.1805 8.52547 24.203C8.45579 24.2192 8.37695 24.2375 8.29108 24.2361C8.10596 24.2326 7.949 24.1537 7.86101 24.0185C7.74628 23.8425 7.75332 23.5799 7.87931 23.2792L7.93844 23.1447C8.14045 22.6919 8.47761 21.9335 8.09892 21.2118C7.81385 20.6682 7.34788 20.3295 6.7883 20.2584C6.25124 20.1901 5.69799 20.3893 5.34534 20.7787C4.78858 21.3928 4.702 22.2286 4.80969 22.5243C4.84911 22.6328 4.91105 22.6623 4.9554 22.6687C5.05042 22.6814 5.18979 22.6123 5.27777 22.3765L5.30311 22.2997C5.34253 22.1751 5.41503 21.9427 5.53398 21.7561C5.67758 21.5315 5.90141 21.3766 6.16466 21.3202C6.43213 21.2632 6.70594 21.3139 6.93471 21.4639C7.32465 21.7195 7.47458 22.1969 7.30846 22.6532C7.22259 22.8891 7.08252 23.3397 7.11349 23.7101C7.17614 24.46 7.63718 24.7614 8.05106 24.7931C8.45368 24.8086 8.73523 24.5819 8.80632 24.4164C8.84855 24.3185 8.81266 24.2594 8.79013 24.2333V24.2347Z" fill="black"/>
<path d="M32.0239 22.8627C32.0084 22.8085 31.9085 22.4431 31.7712 22.003L31.4918 21.2531C32.0422 20.4285 32.0521 19.6912 31.9789 19.2737C31.9008 18.7561 31.6854 18.3146 31.2511 17.859C30.8168 17.4027 29.9292 16.9359 28.6812 16.5859L28.0266 16.4042C28.0231 16.3775 27.9921 14.86 27.964 14.2087C27.9435 13.7376 27.9027 13.0032 27.6747 12.2786C27.403 11.2984 26.93 10.4415 26.3387 9.89294C27.9696 8.20226 28.9874 6.33907 28.9846 4.74134C28.9796 1.66842 25.2076 0.738229 20.5584 2.66409L19.5737 3.08236C19.5695 3.07813 17.7929 1.33465 17.7661 1.31141C12.4659 -3.31347 -4.10692 15.1142 1.19189 19.5898L2.34977 20.5714C2.04921 21.3495 1.93167 22.2417 2.0281 23.2007C2.15198 24.4323 2.78688 25.6132 3.81666 26.5258C4.79364 27.3919 6.07892 27.9404 7.32549 27.939C9.38716 32.6927 14.0982 35.6086 19.6223 35.7727C25.5475 35.9487 30.5219 33.1673 32.606 28.1707C32.7426 27.82 33.3212 26.2399 33.3212 24.8449C33.3212 23.443 32.5293 22.862 32.0246 22.862L32.0239 22.8627ZM7.7809 26.6039C7.60071 26.6349 7.417 26.6469 7.23188 26.6426C5.44191 26.5948 3.50906 24.983 3.3169 23.0712C3.10433 20.9587 4.18338 19.3321 6.09441 18.9469C6.32247 18.9012 6.59909 18.8744 6.89683 18.8899C7.96743 18.9484 9.54483 19.7708 9.90521 22.1037C10.2241 24.1697 9.71728 26.2737 7.7809 26.6039ZM5.78259 17.683C4.59303 17.9147 3.54496 18.5885 2.90372 19.5201C2.52081 19.2004 1.80637 18.5815 1.68038 18.3407C0.656939 16.3965 2.79744 12.6166 4.29248 10.4823C7.98785 5.20679 13.7751 1.21424 16.4548 1.93811C16.8905 2.06133 18.3328 3.7344 18.3328 3.7344C18.3328 3.7344 15.6545 5.22087 13.1712 7.2932C9.82497 9.87111 7.29664 13.6172 5.78259 17.683ZM24.5677 25.8139C24.6064 25.7977 24.6332 25.7526 24.629 25.7089C24.6233 25.6547 24.5748 25.6153 24.5206 25.6209C24.5206 25.6209 21.717 26.0364 19.0683 25.066C19.3569 24.1281 20.1241 24.4668 21.2834 24.5605C23.3732 24.6851 25.2463 24.3795 26.6301 23.9824C27.8295 23.638 29.4048 22.9592 30.6288 21.9931C31.0413 22.9001 31.187 23.8979 31.187 23.8979C31.187 23.8979 31.5066 23.8408 31.7733 24.0049C32.0253 24.1605 32.2105 24.483 32.0845 25.3181C31.8268 26.8778 31.1645 28.1432 30.051 29.3079C29.3731 30.0381 28.5503 30.6725 27.6085 31.1337C27.1087 31.3964 26.5759 31.6238 26.0135 31.8076C21.8156 33.1793 17.5177 31.671 16.1324 28.4326C16.0219 28.189 15.9283 27.9341 15.8544 27.6679C15.2639 25.5336 15.765 22.9733 17.3318 21.3615C17.4283 21.2587 17.5268 21.1376 17.5268 20.9855C17.5268 20.858 17.4459 20.7242 17.3762 20.6292C16.8279 19.8342 14.9295 18.4787 15.311 15.8557C15.5848 13.9714 17.2319 12.6448 18.7678 12.7236L19.157 12.7462C19.8222 12.7856 20.4029 12.8708 20.9512 12.894C21.8684 12.9335 22.6926 12.8004 23.6689 11.9864C23.9983 11.7118 24.2622 11.4738 24.7092 11.3977C24.7564 11.39 24.8732 11.3477 25.1062 11.359C25.3448 11.3717 25.5715 11.4371 25.7756 11.573C26.5583 12.0941 26.6695 13.3567 26.7103 14.2798C26.7336 14.8072 26.7969 16.0824 26.8187 16.4479C26.8687 17.2851 27.0883 17.4027 27.5332 17.5499C27.7838 17.6323 28.016 17.6936 28.3581 17.79C29.3942 18.0808 30.0087 18.3766 30.3966 18.7554C30.6274 18.9927 30.7351 19.2441 30.7682 19.4849C30.8907 20.3771 30.0763 21.4784 27.9203 22.4797C25.5637 23.5739 22.7053 23.8507 20.7302 23.631L20.0383 23.5528C18.4581 23.3402 17.5571 25.3829 18.5052 26.7821C19.1162 27.6841 20.7809 28.2707 22.4462 28.2714C26.2648 28.2721 29.2 26.6405 30.2917 25.2315L30.379 25.1069C30.4325 25.0259 30.3881 24.9815 30.3212 25.0273C29.4294 25.6378 25.4673 28.0622 21.2292 27.3327C21.2292 27.3327 20.714 27.2482 20.2445 27.0651C19.8707 26.9201 19.0894 26.5603 18.9944 25.7575C22.4146 26.8159 24.5677 25.8153 24.5677 25.8153V25.8139ZM19.15 25.1738L19.1507 25.1745L19.1514 25.1759L19.15 25.1738ZM12.6074 10.4598C13.9208 8.94092 15.5384 7.62063 16.9869 6.87916C17.0369 6.85381 17.0904 6.90803 17.063 6.95732C16.9482 7.16575 16.7265 7.61218 16.6561 7.95017C16.6449 8.00299 16.7026 8.04242 16.7469 8.01214C17.6479 7.39741 19.2161 6.73903 20.5915 6.65453C20.6506 6.65101 20.6788 6.72636 20.6323 6.76297C20.4233 6.92352 20.1945 7.14533 20.0277 7.36995C19.9996 7.40798 20.0263 7.4629 20.0735 7.4636C21.0392 7.47065 22.4005 7.80864 23.2874 8.30648C23.3472 8.34028 23.305 8.45646 23.2374 8.44097C21.8951 8.13325 19.6976 7.89948 17.4149 8.45646C15.3772 8.95359 13.8216 9.72112 12.6869 10.5471C12.6299 10.5886 12.561 10.514 12.6074 10.4598Z" fill="black"/>
<path d="M126.85 14.0307C124.886 14.0307 123.987 15.5038 123.595 16.3424C123.337 16.8966 123.35 17.0593 123.161 17.0593C122.888 17.0593 123.115 16.6142 123.237 16.0904C123.479 15.0595 123.295 14.2722 123.295 14.2722H120.496V27.7068H124.316V23.4474C124.768 24.2142 125.606 25.0338 126.896 25.0338C129.658 25.0338 131.049 22.6953 131.049 19.5365C131.049 15.9559 129.385 14.0293 126.849 14.0293L126.85 14.0307ZM125.801 22.5404C124.925 22.5404 124.281 21.4293 124.281 19.8801C124.281 18.376 124.943 17.2205 125.771 17.2205C126.834 17.2205 127.287 18.1958 127.287 19.8801C127.287 21.632 126.87 22.5404 125.801 22.5404Z" fill="black"/>
<path d="M50.9148 14.0307C49.2347 14.0307 48.4034 15.3538 48.0219 16.2065C47.8086 16.6833 47.7495 17.06 47.5763 17.06C47.3328 17.06 47.5074 16.7325 47.3082 16.0066C47.0456 15.051 46.2559 14.0307 44.5764 14.0307C42.8111 14.0307 42.0551 15.5228 41.6968 16.3424C41.4519 16.903 41.4512 17.0593 41.2625 17.0593C40.9894 17.0593 41.2161 16.6143 41.3386 16.0904C41.5807 15.0595 41.3963 14.2722 41.3963 14.2722H38.5977V24.7993H42.4176V19.5618C42.4176 18.5288 42.8498 17.2177 43.5903 17.2177C44.4455 17.2177 44.6172 17.8754 44.6172 19.0922V24.8022H48.4527V19.5618C48.4527 18.6422 48.8278 17.2177 49.631 17.2177C50.4982 17.2177 50.6523 18.1409 50.6523 19.0922V24.7993H54.4188V18.6084C54.4188 15.8608 53.4509 14.0293 50.9156 14.0293L50.9148 14.0307ZM115.752 14.0307C114.072 14.0307 113.241 15.3538 112.859 16.2065C112.646 16.6833 112.587 17.06 112.414 17.06C112.17 17.06 112.333 16.6438 112.145 16.0066C111.865 15.056 111.169 14.0307 109.414 14.0307C107.648 14.0307 106.892 15.5228 106.534 16.3424C106.289 16.903 106.288 17.0593 106.1 17.0593C105.827 17.0593 106.053 16.6143 106.176 16.0904C106.418 15.0595 106.233 14.2722 106.233 14.2722H103.435V24.7993H107.255V19.5618C107.255 18.5288 107.687 17.2177 108.427 17.2177C109.283 17.2177 109.454 17.8754 109.454 19.0922V24.8022H113.29V19.5618C113.29 18.6422 113.665 17.2177 114.468 17.2177C115.335 17.2177 115.489 18.1409 115.489 19.0922V24.7993H119.256V18.6084C119.256 15.8608 118.288 14.0293 115.753 14.0293L115.752 14.0307ZM60.9402 14.0328C58.0142 14.0328 55.9145 15.1088 55.9145 15.1088V18.2725C55.9145 18.2725 58.2331 16.9389 60.1139 16.9389C61.6152 16.9389 61.7996 17.7486 61.7314 18.4211C61.7314 18.4211 61.2985 18.3063 59.9773 18.3063C56.864 18.3063 55.2923 19.7217 55.2923 21.9919C55.2923 24.1452 57.0583 25.0451 58.547 25.0451C60.7185 25.0451 61.6729 23.5854 61.9665 22.8925C62.1699 22.4123 62.2072 22.0883 62.3902 22.0883C62.5985 22.0883 62.5282 22.3207 62.5183 22.7988C62.5007 23.6361 62.5401 24.2698 62.6732 24.8029H65.552V19.6217C65.552 16.3868 64.4075 14.0328 60.9402 14.0328ZM60.0104 22.3397C59.0967 22.551 58.6237 22.2693 58.6237 21.6637C58.6237 20.8342 59.4818 20.5019 60.7058 20.5019C61.2457 20.5019 61.7532 20.5484 61.7532 20.5484C61.7532 20.904 60.9824 22.1158 60.0104 22.3397ZM71.844 11.0859H75.664V24.8029H71.844V11.0859ZM79.8682 19.5386C79.8682 18.5922 80.7474 17.731 82.3607 17.731C84.119 17.731 85.5331 18.5781 85.8505 18.7704V15.1088C85.8505 15.1088 84.7335 14.0328 81.9869 14.0328C79.0919 14.0328 76.6811 15.7277 76.6811 19.3752C76.6811 23.0228 78.8687 25.0451 81.9792 25.0451C84.4083 25.0451 85.8568 23.71 85.8568 23.71V20.2322C85.3986 20.4885 84.1218 21.375 82.3783 21.375C80.532 21.375 79.8675 20.5251 79.8675 19.5393L79.8682 19.5386ZM93.589 14.0328C91.3774 14.0328 90.5362 16.1291 90.3666 16.4931C90.197 16.8572 90.1125 17.0663 89.9738 17.0621C89.7324 17.0543 89.9006 16.615 89.9949 16.3312C90.173 15.7939 90.5496 14.3856 90.5496 12.6534C90.5496 11.4789 90.3905 11.0859 90.3905 11.0859H87.0929V24.8029H90.9128V19.5654C90.9128 18.7119 91.2528 17.2212 92.2157 17.2212C93.0125 17.2212 93.2624 17.812 93.2624 19.002V24.8036H97.0823V19.2316C97.0823 16.529 96.6346 14.0342 93.589 14.0342V14.0328ZM98.324 14.287V24.8022H102.144V14.287C102.144 14.287 101.502 14.663 100.238 14.663C98.9736 14.663 98.324 14.287 98.324 14.287Z" fill="black"/>
<path d="M102.571 12.5061C102.571 13.3493 101.524 14.0327 100.233 14.0327C98.9412 14.0327 97.8945 13.3493 97.8945 12.5061C97.8945 11.6629 98.9412 10.9795 100.233 10.9795C101.524 10.9795 102.571 11.6629 102.571 12.5061Z" fill="black"/>
<path d="M66.793 14.2869V24.802H70.6129V14.2869C70.6129 14.2869 69.971 14.6629 68.7068 14.6629L66.793 14.2869Z" fill="black"/>
<path d="M71.0242 12.5061C71.0242 13.3493 69.9774 14.0327 68.6859 14.0327C67.3945 14.0327 66.3477 13.3493 66.3477 12.5061C66.3477 11.6629 67.3945 10.9795 68.6859 10.9795C69.9774 10.9795 71.0242 11.6629 71.0242 12.5061Z" fill="black"/>
</g>
<defs>
<clipPath id="clip0_133_2470">
<rect width="130.884" height="35.2078" fill="white" transform="translate(0.167969 0.572998)"/>
</clipPath>
</defs>
</svg>
