<svg width="144" height="32" viewBox="0 0 144 32" fill="none" xmlns="http://www.w3.org/2000/svg">
<g clip-path="url(#clip0_133_2464)">
<path d="M50.5401 18.4969L49.6869 20.9117H49.6158C49.4736 20.3672 49.2129 19.5386 48.7862 18.5443L44.2119 7.0623H39.7324V25.3624H42.6951V14.0698C42.6951 13.3596 42.6951 12.5547 42.6714 11.5604C42.6477 11.0632 42.6003 10.6844 42.5766 10.4004H42.6477C42.7899 11.1106 42.9558 11.6314 43.0743 11.9628L48.5729 25.3151H50.6586L56.1099 11.8445C56.2284 11.5367 56.3469 10.9212 56.4654 10.4004H56.5365C56.4654 11.7498 56.418 12.9572 56.3943 13.6911V25.2914H59.5465V7.01495H55.2329L50.5401 18.4969ZM62.5329 12.1759H65.614V25.2914H62.5329V12.1759ZM64.0971 6.63617C63.5757 6.63617 63.1491 6.82556 62.7936 7.157C62.4381 7.48844 62.2484 7.91457 62.2484 8.4354C62.2484 8.93256 62.4381 9.35869 62.7936 9.69013C63.1491 10.0216 63.5757 10.1873 64.0971 10.1873C64.6186 10.1873 65.0689 9.99789 65.4007 9.69013C65.7562 9.35869 65.9458 8.93256 65.9458 8.4354C65.9458 7.93824 65.7562 7.51211 65.4007 7.157C65.0926 6.82556 64.6423 6.63617 64.0971 6.63617ZM76.5402 12.0575C75.9714 11.9392 75.3788 11.8682 74.81 11.8682C73.4117 11.8682 72.1318 12.1759 71.0652 12.7914C69.9987 13.407 69.1455 14.2592 68.6003 15.3246C68.0315 16.4136 67.7471 17.6683 67.7471 19.1124C67.7471 20.3672 68.0315 21.4798 68.5766 22.4978C69.1218 23.4922 69.8802 24.2971 70.8993 24.8416C71.8711 25.3861 73.0087 25.6702 74.2886 25.6702C75.7581 25.6702 77.0142 25.3624 78.0097 24.7942L78.0334 24.7706V21.9297L77.9149 22.0244C77.4645 22.3558 76.9431 22.6399 76.4217 22.8056C75.8766 22.995 75.3788 23.0897 74.9522 23.0897C73.7198 23.0897 72.748 22.7346 72.0607 21.9533C71.3497 21.1958 70.9941 20.1541 70.9941 18.852C70.9941 17.5026 71.3497 16.4373 72.0844 15.656C72.8191 14.8748 73.7909 14.4723 74.9759 14.4723C75.9714 14.4723 76.9905 14.8037 77.9149 15.4666L78.0334 15.5613V12.5547L78.0097 12.531C77.6068 12.3653 77.1564 12.1759 76.5402 12.0575ZM86.708 11.9628C85.9495 11.9628 85.2385 12.1996 84.6223 12.6967C84.1008 13.1229 83.7453 13.7384 83.4372 14.4723H83.4135V12.1759H80.3324V25.2914H83.4135V18.5916C83.4135 17.4552 83.6505 16.5083 84.1719 15.8217C84.6934 15.1115 85.357 14.7564 86.1628 14.7564C86.4473 14.7564 86.7317 14.8274 87.0872 14.8748C87.419 14.9695 87.656 15.0642 87.8219 15.1825L87.9404 15.2772V12.1996L87.8693 12.1759C87.656 12.0339 87.2294 11.9628 86.708 11.9628ZM95.0981 11.8918C92.9413 11.8918 91.2112 12.531 90.0024 13.7858C88.77 15.0405 88.1774 16.7687 88.1774 18.9467C88.1774 20.9827 88.7937 22.6399 89.9787 23.8473C91.1638 25.031 92.7754 25.6465 94.79 25.6465C96.8994 25.6465 98.5822 25.0073 99.791 23.7289C101.023 22.4505 101.616 20.746 101.616 18.639C101.616 16.5556 101.047 14.8984 99.8858 13.6911C98.7718 12.4837 97.1364 11.8918 95.0981 11.8918ZM97.5631 21.977C96.9942 22.7109 96.0936 23.066 94.9796 23.066C93.8657 23.066 92.965 22.7109 92.3251 21.9297C91.6852 21.1958 91.3771 20.1304 91.3771 18.781C91.3771 17.3842 91.7089 16.3189 92.3251 15.5613C92.965 14.8037 93.842 14.425 94.9559 14.425C96.0462 14.425 96.8994 14.7801 97.5157 15.514C98.1319 16.2479 98.4637 17.3132 98.4637 18.71C98.4163 20.1304 98.1556 21.2431 97.5631 21.977ZM108.489 17.621C107.518 17.2185 106.901 16.9107 106.617 16.6503C106.38 16.4136 106.261 16.0821 106.261 15.656C106.261 15.3009 106.404 14.9458 106.759 14.709C107.115 14.4723 107.518 14.3539 108.11 14.3539C108.631 14.3539 109.177 14.4486 109.698 14.5907C110.219 14.7327 110.693 14.9458 111.073 15.2299L111.191 15.3246V12.4363L111.12 12.4127C110.765 12.2706 110.291 12.1286 109.722 12.0102C109.153 11.9155 108.631 11.8682 108.205 11.8682C106.735 11.8682 105.527 12.2233 104.579 13.0045C103.631 13.7384 103.18 14.7327 103.18 15.8928C103.18 16.5083 103.275 17.0528 103.488 17.5026C103.702 17.9524 104.01 18.3785 104.436 18.7337C104.863 19.0651 105.479 19.4439 106.332 19.799C107.043 20.1068 107.589 20.3435 107.92 20.5329C108.252 20.7223 108.466 20.9353 108.631 21.1011C108.75 21.2905 108.821 21.5272 108.821 21.835C108.821 22.7109 108.157 23.137 106.806 23.137C106.285 23.137 105.74 23.0423 105.1 22.8293C104.46 22.6162 103.868 22.3084 103.37 21.9533L103.251 21.8586V24.8652L103.322 24.8889C103.773 25.102 104.318 25.244 104.981 25.4098C105.645 25.5281 106.238 25.6228 106.759 25.6228C108.347 25.6228 109.651 25.2677 110.575 24.4865C111.523 23.7289 112.021 22.7583 112.021 21.5035C112.021 20.6276 111.784 19.8463 111.262 19.2545C110.575 18.6863 109.722 18.0944 108.489 17.621ZM120.15 11.8918C117.993 11.8918 116.263 12.531 115.054 13.7858C113.846 15.0405 113.229 16.7687 113.229 18.9467C113.229 20.9827 113.846 22.6399 115.031 23.8473C116.216 25.031 117.827 25.6465 119.842 25.6465C121.951 25.6465 123.634 25.0073 124.843 23.7289C126.075 22.4505 126.668 20.746 126.668 18.639C126.668 16.5556 126.099 14.8984 124.938 13.6911C123.824 12.4837 122.188 11.8918 120.15 11.8918ZM122.591 21.977C122.023 22.7109 121.122 23.066 120.008 23.066C118.87 23.066 117.993 22.7109 117.353 21.9297C116.714 21.1958 116.405 20.1304 116.405 18.781C116.405 17.3842 116.737 16.3189 117.353 15.5613C117.993 14.8037 118.87 14.425 119.984 14.425C121.051 14.425 121.928 14.7801 122.544 15.514C123.16 16.2479 123.492 17.3132 123.492 18.71C123.492 20.1304 123.184 21.2431 122.591 21.977ZM143.14 14.709V12.1759H140.035V8.29336L139.941 8.31703L137.002 9.19297L136.931 9.21665V12.1759H132.285V10.5187C132.285 9.76115 132.475 9.1693 132.807 8.79051C133.138 8.41173 133.636 8.22233 134.252 8.22233C134.679 8.22233 135.129 8.31703 135.627 8.5301L135.745 8.60112V5.92594L135.674 5.90227C135.248 5.76022 134.679 5.66553 133.944 5.66553C133.02 5.66553 132.214 5.87859 131.479 6.23371C130.745 6.63617 130.199 7.18067 129.797 7.91457C129.394 8.62479 129.18 9.42972 129.18 10.353V12.1759H127.024V14.6854H129.18V25.2914H132.285V14.709H136.931V21.4562C136.931 24.226 138.234 25.6228 140.841 25.6228C141.268 25.6228 141.718 25.5518 142.145 25.4808C142.595 25.3861 142.927 25.2677 143.117 25.173L143.14 25.1493V22.6162L143.022 22.7109C142.832 22.8293 142.666 22.924 142.382 22.995C142.145 23.066 141.931 23.0897 141.766 23.0897C141.149 23.0897 140.723 22.9476 140.415 22.5925C140.13 22.2611 139.988 21.7166 139.988 20.9117V14.709H143.14Z" fill="#737373"/>
<path d="M0.0136719 0.906982H14.5424V15.4192H0.0136719V0.906982Z" fill="#F25022"/>
<path d="M16.0527 0.906982H30.5815V15.4192H16.0527V0.906982Z" fill="#7FBA00"/>
<path d="M0.0136719 16.9343H14.5424V31.4466H0.0136719V16.9343Z" fill="#00A4EF"/>
<path d="M16.0527 16.9343H30.5815V31.4466H16.0527V16.9343Z" fill="#FFB900"/>
</g>
<defs>
<clipPath id="clip0_133_2464">
<rect width="143.155" height="30.5396" fill="white" transform="translate(0.0136719 0.906982)"/>
</clipPath>
</defs>
</svg>
