<svg width="127" height="44" viewBox="0 0 127 44" fill="none" xmlns="http://www.w3.org/2000/svg">
<g clip-path="url(#clip0_153_4116)">
<path d="M3.61384 2.24456L27.7514 0.432536C30.6814 0.153763 31.4488 0.362843 33.3323 1.68702L41.0759 7.1231C42.3316 8.02911 42.7502 8.30789 42.7502 9.35329V39.1124C42.7502 40.9941 42.0525 42.1092 39.6806 42.2486L11.6364 43.9212C9.82263 43.9909 8.98549 43.7818 8.07859 42.597L2.42789 35.2792C1.38146 33.8854 0.962891 32.9096 0.962891 31.7249V5.24138C0.962891 3.70812 1.66051 2.38395 3.61384 2.24456Z" fill="white"/>
<path fill-rule="evenodd" clip-rule="evenodd" d="M27.7514 0.432433L3.61384 2.24446C1.66051 2.38385 0.962891 3.70802 0.962891 5.24128V31.7248C0.962891 32.9095 1.38146 33.9549 2.42789 35.2791L8.07859 42.6666C8.98549 43.8514 9.89239 44.1302 11.6364 43.9908L39.6806 42.3181C42.0525 42.1788 42.7502 41.0637 42.7502 39.1819V9.35318C42.7502 8.37748 42.4014 8.0987 41.2154 7.26238C41.1456 7.19269 41.0759 7.19269 41.0061 7.123L33.3323 1.75661C31.5185 0.36274 30.7511 0.223353 27.7514 0.432433ZM12.2643 8.86533C9.96215 9.00472 9.47382 9.07441 8.14835 7.95932L4.86955 5.38066C4.52074 5.0322 4.66026 4.61404 5.56716 4.54434L28.7978 2.8717C30.7511 2.73231 31.7278 3.35955 32.4952 3.98679L36.4716 6.84422C36.6809 6.91392 37.0995 7.40177 36.5414 7.40177L12.5433 8.86533H12.2643ZM9.61334 38.9032V13.6045C9.61334 12.4894 9.96215 12.0015 10.9388 11.9318L38.4947 10.3289C39.4016 10.2592 39.8202 10.8167 39.8202 11.9318V37.0214C39.8202 38.1365 39.6109 39.0426 38.1459 39.1123L11.776 40.6455C10.311 40.7849 9.61334 40.2273 9.61334 38.9032ZM35.6345 14.9983C35.774 15.765 35.6345 16.5316 34.8671 16.6013L33.6114 16.8801V35.5579C32.4952 36.1851 31.5185 36.4639 30.6814 36.4639C29.3559 36.4639 29.0071 36.0457 27.9607 34.7913L19.5893 21.6889V34.3034L22.2402 34.9306C22.2402 34.9306 22.2402 36.4639 20.1474 36.4639L14.2874 36.8124C14.1479 36.4639 14.2874 35.6276 14.8455 35.4882L16.3802 35.07V18.3436L14.2874 18.1345C14.1479 17.3679 14.5664 16.2528 15.7524 16.1831L22.0309 15.765L30.6814 29.0067V17.2982L28.449 17.0195C28.3095 16.1134 28.9373 15.4165 29.7745 15.3468L35.6345 14.9983Z" fill="black"/>
<path d="M61.3226 31.3066V19.8072H61.5319L69.8335 31.3066H72.4844V14.3711H69.5545V25.8705H69.3452L61.0435 14.3711H58.3926V31.3066H61.3226ZM80.6466 31.5157C84.4835 31.5157 86.7856 29.0068 86.7856 24.8251C86.7856 20.7132 84.4137 18.1346 80.6466 18.1346C76.8097 18.1346 74.5075 20.6435 74.5075 24.8251C74.4378 29.0068 76.8097 31.5157 80.6466 31.5157ZM80.6466 29.0764C78.6235 29.0764 77.4375 27.5432 77.4375 24.8251C77.4375 22.1768 78.6235 20.5739 80.6466 20.5739C82.6697 20.5739 83.8556 22.1071 83.8556 24.8251C83.7858 27.5432 82.6697 29.0764 80.6466 29.0764ZM89.4365 15.3469V18.5527H87.4135V20.8526H89.4365V27.822C89.4365 30.3309 90.6225 31.3066 93.5525 31.3066C94.1106 31.3066 94.6687 31.2369 95.0872 31.1672V28.9371C94.7384 29.0068 94.5292 29.0068 94.1106 29.0068C92.9246 29.0068 92.3665 28.4492 92.3665 27.1947V20.9223H95.0872V18.6224H92.3665V15.4165H89.4365V15.3469ZM96.8313 31.3066H99.7613V18.4831H96.8313V31.3066ZM98.2963 16.3226C99.2729 16.3226 100.04 15.5559 100.04 14.5802C100.04 13.6045 99.2729 12.8379 98.2963 12.8379C97.3196 12.8379 96.5522 13.6045 96.5522 14.5802C96.5522 15.5559 97.3196 16.3226 98.2963 16.3226ZM107.714 31.5157C111.551 31.5157 113.853 29.0068 113.853 24.8251C113.853 20.7132 111.481 18.1346 107.714 18.1346C103.877 18.1346 101.575 20.6435 101.575 24.8251C101.505 29.0068 103.877 31.5157 107.714 31.5157ZM107.714 29.0764C105.691 29.0764 104.505 27.5432 104.505 24.8251C104.505 22.1768 105.691 20.5739 107.714 20.5739C109.737 20.5739 110.923 22.1071 110.923 24.8251C110.853 27.5432 109.737 29.0764 107.714 29.0764ZM115.597 31.3066H118.527V23.7797C118.527 21.898 119.643 20.7132 121.318 20.7132C123.062 20.7132 123.899 21.6889 123.899 23.6404V31.2369H126.829V22.9434C126.829 19.8769 125.294 18.1346 122.434 18.1346C120.55 18.1346 119.225 19.0406 118.597 20.4345H118.388V18.4831H115.597V31.3066Z" fill="black"/>
</g>
<defs>
<clipPath id="clip0_153_4116">
<rect width="125.85" height="43.628" fill="white" transform="translate(0.931641 0.362793)"/>
</clipPath>
</defs>
</svg>
