<svg width="67" height="50" viewBox="0 0 67 50" fill="none" xmlns="http://www.w3.org/2000/svg">
<g clip-path="url(#clip0_133_2446)">
<mask id="mask0_133_2446" style="mask-type:luminance" maskUnits="userSpaceOnUse" x="-1" y="2" width="68" height="47">
<path d="M-0.0703125 2.15137H66.0821V48.4501H-0.0703125V2.15137Z" fill="white"/>
</mask>
<g mask="url(#mask0_133_2446)">
<path fill-rule="evenodd" clip-rule="evenodd" d="M27.4565 7.20256C29.5904 4.97952 32.5615 3.60009 35.8472 3.60009C40.2147 3.60009 44.0258 6.03561 46.0546 9.65169C47.8698 8.84056 49.8361 8.42249 51.8244 8.42494C59.7023 8.42494 66.0889 14.8672 66.0889 22.8146C66.0889 30.7621 59.7023 37.2046 51.8244 37.2046C50.8624 37.2046 49.923 37.1078 49.0142 36.9245C47.2276 40.1115 43.8216 42.2653 39.9132 42.2653C38.3324 42.2674 36.772 41.9083 35.3512 41.2152C33.54 45.4768 29.3186 48.4647 24.4001 48.4647C19.277 48.4647 14.9106 45.2235 13.2358 40.6777C12.4893 40.8352 11.7285 40.9144 10.9656 40.914C4.86609 40.914 -0.078125 35.918 -0.078125 29.7553C-0.078125 25.6248 2.14297 22.0187 5.44422 20.0896C4.74479 18.479 4.38486 16.7415 4.38692 14.9856C4.38692 7.89762 10.1407 2.15137 17.2382 2.15137C21.4052 2.15137 25.1085 4.13226 27.4565 7.20256Z" fill="#00A1E0"/>
</g>
<path fill-rule="evenodd" clip-rule="evenodd" d="M9.54629 26.1689C9.50471 26.2773 9.56112 26.2999 9.57449 26.3191C9.69872 26.4091 9.8249 26.4742 9.95229 26.5474C10.6269 26.9045 11.2646 27.0093 11.9308 27.0093C13.2881 27.0093 14.1312 26.2877 14.1312 25.1257V25.1028C14.1312 24.0282 13.1794 23.6378 12.2874 23.356L12.171 23.3183C11.4983 23.1 10.9177 22.9111 10.9177 22.4679V22.4453C10.9177 22.0658 11.2571 21.787 11.7829 21.787C12.3676 21.787 13.0605 21.9812 13.5074 22.228C13.5074 22.228 13.6391 22.3131 13.687 22.1859C13.713 22.1171 13.9389 21.5088 13.9629 21.443C13.9887 21.3717 13.9435 21.318 13.8971 21.2903C13.3868 20.9793 12.682 20.7678 11.9524 20.7678L11.817 20.7683C10.5747 20.7683 9.70723 21.5195 9.70723 22.5946V22.6177C9.70723 23.7506 10.6641 24.1189 11.5605 24.3749L11.7044 24.4196C12.3572 24.62 12.921 24.7931 12.921 25.2523V25.2752C12.921 25.6958 12.5546 26.0082 11.9645 26.0082C11.7358 26.0082 11.0055 26.0043 10.2163 25.5052C10.1208 25.4495 10.0663 25.4094 9.99264 25.3644C9.95375 25.3408 9.8565 25.2983 9.8142 25.4257L9.54629 26.1689ZM29.416 26.1689C29.3745 26.2773 29.4309 26.2999 29.4447 26.3191C29.5685 26.4091 29.6949 26.4742 29.822 26.5474C30.4969 26.9045 31.1346 27.0093 31.8005 27.0093C33.1578 27.0093 34.0012 26.2877 34.0012 25.1257V25.1028C34.0012 24.0282 33.0496 23.6378 32.1574 23.356L32.0409 23.3183C31.3682 23.1 30.7874 22.9111 30.7874 22.4679V22.4453C30.7874 22.0658 31.1271 21.787 31.6532 21.787C32.2376 21.787 32.9303 21.9812 33.3771 22.228C33.3771 22.228 33.5089 22.3131 33.557 22.1859C33.5828 22.1171 33.8089 21.5088 33.8327 21.443C33.8587 21.3717 33.8132 21.318 33.7671 21.2903C33.2565 20.9793 32.552 20.7678 31.8224 20.7678L31.6867 20.7683C30.4447 20.7683 29.5772 21.5195 29.5772 22.5946V22.6177C29.5772 23.7506 30.5339 24.1189 31.4305 24.3749L31.5742 24.4196C32.2272 24.62 32.791 24.7931 32.791 25.2523V25.2752C32.791 25.6958 32.4243 26.0082 31.8348 26.0082C31.6055 26.0082 30.8752 26.0043 30.0863 25.5052C29.9908 25.4495 29.9348 25.4111 29.8624 25.3644C29.8378 25.3488 29.7233 25.3041 29.6842 25.4257L29.416 26.1689ZM42.9806 23.8923C42.9806 24.5487 42.8581 25.0671 42.6174 25.4325C42.3782 25.7947 42.0171 25.971 41.5137 25.971C41.0102 25.971 40.6511 25.7949 40.4158 25.4329C40.1782 25.0673 40.0576 24.5487 40.0576 23.8923C40.0576 23.2364 40.1782 22.7198 40.4158 22.358C40.6511 21.9994 41.0102 21.8254 41.5137 21.8254C42.0171 21.8254 42.3782 21.9997 42.6174 22.3583C42.8586 22.7198 42.9806 23.2364 42.9806 23.8923ZM44.114 22.6751C44.0024 22.2985 43.8291 21.9671 43.5984 21.6907C43.3672 21.4135 43.0747 21.1906 42.728 21.0292C42.3818 20.8675 41.9734 20.7856 41.5137 20.7856C41.0539 20.7856 40.6453 20.8675 40.2988 21.0292C39.9526 21.1906 39.6599 21.4135 39.4287 21.6912C39.1982 21.9681 39.0244 22.299 38.9133 22.6751C38.8027 23.0487 38.7465 23.4584 38.7465 23.8923C38.7465 24.3265 38.8027 24.7364 38.9133 25.1096C39.0244 25.4855 39.1977 25.8166 39.4289 26.094C39.6602 26.3716 39.9536 26.5926 40.2993 26.7501C40.646 26.9077 41.0544 26.9879 41.5137 26.9879C41.9731 26.9879 42.3811 26.9077 42.7275 26.7501C43.0737 26.5926 43.3667 26.3716 43.5984 26.094C43.8291 25.8176 44.0024 25.4859 44.114 25.1096C44.2244 24.7357 44.2805 24.326 44.2805 23.8923C44.2805 23.4589 44.2244 23.049 44.114 22.6751ZM53.4173 25.7952C53.3801 25.6851 53.2726 25.7266 53.2726 25.7266C53.108 25.7896 52.933 25.8479 52.7458 25.8771C52.5571 25.9068 52.3483 25.9216 52.1249 25.9216C51.5771 25.9216 51.1408 25.7585 50.8293 25.4361C50.5164 25.1135 50.3407 24.5923 50.3426 23.8872C50.3443 23.2464 50.4994 22.7635 50.7775 22.3955C51.0532 22.0298 51.4743 21.8421 52.0342 21.8421C52.5017 21.8421 52.8584 21.8964 53.232 22.0135C53.232 22.0135 53.3208 22.0522 53.3633 21.9353C53.4627 21.6598 53.5362 21.4639 53.6422 21.1612C53.6723 21.0749 53.5984 21.0384 53.5714 21.028C53.4246 20.9706 53.0776 20.8765 52.8158 20.8369C52.571 20.7994 52.2848 20.78 51.9656 20.78C51.4899 20.78 51.0656 20.8614 50.7029 21.0229C50.3409 21.184 50.0338 21.4067 49.7905 21.6836C49.5471 21.961 49.3619 22.2924 49.2393 22.6682C49.1166 23.0422 49.0546 23.4525 49.0546 23.8877C49.0546 24.8273 49.3082 25.5866 49.8082 26.1428C50.31 26.701 51.0627 26.9845 52.0451 26.9845C52.6254 26.9845 53.2208 26.8671 53.6497 26.6984C53.6497 26.6984 53.7314 26.659 53.6959 26.5637L53.4173 25.7952ZM55.3996 23.2629C55.4538 22.898 55.5538 22.5948 55.7096 22.358C55.9447 21.9994 56.3026 21.8018 56.806 21.8018C57.3098 21.8018 57.6416 21.9997 57.8809 22.3583C58.0389 22.5953 58.1079 22.9111 58.1349 23.2634L55.3996 23.2629ZM59.2139 22.4614C59.1173 22.0981 58.8796 21.7313 58.7232 21.5635C58.4765 21.2976 58.2348 21.1113 57.9949 21.0085C57.6476 20.8609 57.2741 20.7851 56.8967 20.7856C56.418 20.7856 55.9831 20.8665 55.6303 21.0318C55.2771 21.1976 54.9803 21.4242 54.7476 21.7058C54.5144 21.987 54.3396 22.3218 54.2281 22.7016C54.1162 23.0791 54.0598 23.4907 54.0598 23.9254C54.0598 24.3674 54.1184 24.7795 54.2337 25.15C54.3501 25.5236 54.5371 25.8516 54.7894 26.1246C55.0415 26.3986 55.3661 26.6135 55.7538 26.7633C56.1397 26.9128 56.6084 26.9903 57.1459 26.9886C58.254 26.985 58.8368 26.738 59.0775 26.605C59.12 26.5812 59.1601 26.5401 59.11 26.4217L58.8591 25.7196C58.8207 25.6148 58.7147 25.6527 58.7147 25.6527C58.4398 25.7553 58.0505 25.9384 57.1403 25.9364C56.5457 25.9355 56.1051 25.7597 55.8282 25.4852C55.545 25.2044 55.4059 24.7921 55.3824 24.2096L59.2168 24.2125C59.2168 24.2125 59.3179 24.2115 59.3284 24.1128C59.3325 24.072 59.4599 23.3251 59.2139 22.4614ZM24.6848 23.2629C24.739 22.898 24.8392 22.5948 24.9948 22.358C25.2301 21.9994 25.5875 21.8018 26.0914 21.8018C26.5952 21.8018 26.927 21.9997 27.1663 22.3583C27.324 22.5953 27.3931 22.9111 27.4201 23.2634L24.6848 23.2629ZM28.499 22.4614C28.4027 22.0981 28.1647 21.7313 28.0086 21.5635C27.7619 21.2976 27.5205 21.1113 27.2803 21.0085C26.933 20.861 26.5595 20.7852 26.1821 20.7856C25.7034 20.7856 25.2685 20.8665 24.9157 21.0318C24.5625 21.1976 24.2657 21.4242 24.0325 21.7058C23.7998 21.987 23.625 22.3218 23.513 22.7016C23.4014 23.0791 23.3452 23.4907 23.3452 23.9254C23.3452 24.3674 23.4033 24.7795 23.5193 25.15C23.6355 25.5236 23.8227 25.8516 24.0746 26.1246C24.3269 26.3986 24.6512 26.6135 25.039 26.7633C25.4251 26.9128 25.8933 26.9903 26.4313 26.9886C27.5392 26.985 28.1222 26.738 28.3629 26.605C28.4052 26.5812 28.4455 26.5401 28.3952 26.4217L28.1445 25.7196C28.1059 25.6148 27.9999 25.6527 27.9999 25.6527C27.7252 25.7553 27.3359 25.9384 26.4255 25.9364C25.8311 25.9355 25.3903 25.7597 25.1134 25.4852C24.8304 25.2044 24.6911 24.7921 24.6675 24.2096L28.5022 24.2125C28.5022 24.2125 28.6033 24.2115 28.6138 24.1128C28.6179 24.072 28.7453 23.3251 28.499 22.4614ZM16.3953 25.7743C16.2448 25.6542 16.2239 25.6248 16.1741 25.5467C16.098 25.4293 16.0591 25.262 16.0591 25.0479C16.0591 24.7111 16.1709 24.4685 16.4014 24.3056C16.399 24.3061 16.732 24.0183 17.5136 24.0285C17.8623 24.0347 18.2102 24.0643 18.5549 24.1172V25.8603H18.5554C18.5554 25.8603 18.0679 25.9651 17.5192 25.9982C16.7393 26.0451 16.3929 25.7736 16.3953 25.7743ZM17.9213 23.0791C17.7657 23.0677 17.5642 23.0621 17.3225 23.0621C16.9941 23.0621 16.6764 23.1029 16.378 23.1832C16.0785 23.2639 15.8092 23.3888 15.5775 23.5544C15.3459 23.7198 15.1555 23.9362 15.021 24.187C14.8851 24.4401 14.8158 24.7374 14.8158 25.0707C14.8158 25.4108 14.8749 25.7055 14.9916 25.9462C15.1057 26.1848 15.2776 26.3912 15.4917 26.5467C15.7049 26.7018 15.9679 26.8155 16.273 26.8851C16.5742 26.9539 16.9156 26.9886 17.2885 26.9886C17.6824 26.9886 18.074 26.9556 18.4535 26.8916C18.7768 26.8359 19.0988 26.7734 19.4194 26.7039C19.5473 26.6745 19.6883 26.6359 19.6883 26.6359C19.7831 26.6118 19.7758 26.5104 19.7758 26.5104L19.7736 23.0033C19.7736 22.234 19.5684 21.6642 19.1641 21.3102C18.7618 20.9579 18.1693 20.78 17.4028 20.78C17.1149 20.78 16.6525 20.8189 16.3749 20.8746C16.3749 20.8746 15.5376 21.037 15.1929 21.3071C15.1929 21.3071 15.117 21.3537 15.1583 21.4595L15.4299 22.1888C15.4637 22.2834 15.5558 22.2511 15.5558 22.2511C15.5558 22.2511 15.5848 22.2396 15.6188 22.2195C16.3564 21.8183 17.2897 21.8302 17.2897 21.8302C17.704 21.8302 18.0232 21.9141 18.2376 22.0782C18.447 22.2389 18.5532 22.4808 18.5532 22.9921V23.1542C18.2243 23.1066 17.9213 23.0791 17.9213 23.0791ZM48.854 21.1033C48.8595 21.0905 48.8624 21.0767 48.8625 21.0627C48.8626 21.0488 48.8599 21.0349 48.8545 21.0221C48.8491 21.0092 48.8412 20.9975 48.8312 20.9877C48.8212 20.978 48.8094 20.9703 48.7964 20.9652C48.731 20.9404 48.405 20.8716 48.1536 20.8561C47.6715 20.8259 47.4043 20.9071 47.1646 21.0151C46.9268 21.1223 46.6636 21.2956 46.5167 21.4933L46.5162 21.0255C46.5162 20.9613 46.4708 20.9096 46.4061 20.9096H45.4229C45.3592 20.9096 45.313 20.9613 45.313 21.0255V26.7465C45.3131 26.7774 45.3254 26.8069 45.3472 26.8288C45.3691 26.8506 45.3986 26.8629 45.4295 26.8629H46.4372C46.4681 26.8629 46.4976 26.8506 46.5194 26.8288C46.5412 26.8069 46.5534 26.7773 46.5534 26.7465V23.8887C46.5534 23.5048 46.5957 23.1224 46.6801 22.8819C46.7632 22.6439 46.8763 22.4543 47.0163 22.3179C47.149 22.1863 47.3114 22.0886 47.4899 22.033C47.6572 21.985 47.8303 21.9606 48.0043 21.9605C48.2049 21.9605 48.4256 22.0121 48.4256 22.0121C48.4995 22.0203 48.5406 21.9751 48.5657 21.9085C48.6316 21.7332 48.8183 21.2079 48.854 21.1033Z" fill="#FFFFFE"/>
<path fill-rule="evenodd" clip-rule="evenodd" d="M39.4015 18.4525C39.2771 18.4149 39.1505 18.3849 39.0225 18.3626C38.8502 18.3338 38.6758 18.3203 38.5012 18.3222C37.8076 18.3222 37.2608 18.5181 36.877 18.9052C36.4958 19.2893 36.2364 19.8745 36.1063 20.6444L36.0594 20.9043H35.1888C35.1888 20.9043 35.0825 20.8999 35.0602 21.0159L34.9172 21.8133C34.9073 21.8897 34.9401 21.9373 35.0422 21.9368H35.8897L35.0298 26.7366C34.9624 27.1232 34.8854 27.4412 34.8 27.6821C34.7159 27.9199 34.6338 28.0981 34.5326 28.2274C34.4346 28.3526 34.3418 28.4448 34.1816 28.4985C34.0493 28.543 33.8971 28.5634 33.7303 28.5634C33.6375 28.5634 33.514 28.5478 33.4228 28.5296C33.3316 28.5116 33.2842 28.4912 33.2159 28.4625C33.2159 28.4625 33.1165 28.4246 33.0773 28.5243C33.0455 28.6057 32.8196 29.2269 32.7929 29.3037C32.7657 29.3795 32.8038 29.4393 32.852 29.4566C32.9648 29.497 33.0486 29.5227 33.2023 29.5589C33.4157 29.6093 33.5957 29.6124 33.7641 29.6124C34.1171 29.6124 34.4388 29.5628 34.7055 29.4666C34.9739 29.3696 35.2075 29.2006 35.4142 28.9718C35.6376 28.7251 35.7781 28.4666 35.9125 28.1141C36.0455 27.7648 36.1588 27.331 36.2495 26.8256L37.1135 21.9368H38.3767C38.3767 21.9368 38.4832 21.9407 38.5054 21.8252L38.6483 21.0278C38.6583 20.9515 38.6257 20.9038 38.5231 20.9043H37.2971C37.3032 20.8766 37.3588 20.4453 37.4996 20.0393C37.5596 19.866 37.6727 19.7262 37.7685 19.6302C37.8579 19.5387 37.9681 19.4701 38.0896 19.4303C38.2229 19.3891 38.3618 19.3691 38.5012 19.371C38.6167 19.371 38.73 19.3848 38.8163 19.4028C38.9352 19.4281 38.9814 19.4415 39.0125 19.4507C39.1374 19.4889 39.1542 19.452 39.1788 19.3914L39.472 18.5862C39.5021 18.4997 39.4287 18.4632 39.4015 18.4525ZM22.2682 26.7468C22.2682 26.811 22.2225 26.8633 22.1583 26.8633H21.1414C21.077 26.8633 21.0312 26.811 21.0312 26.7468V18.5617C21.0312 18.4977 21.077 18.4459 21.1414 18.4459H22.1583C22.2225 18.4459 22.2682 18.4977 22.2682 18.5617V26.7468Z" fill="#FFFFFE"/>
</g>
<defs>
<clipPath id="clip0_133_2446">
<rect width="66.3703" height="46.4349" fill="white" transform="translate(0 2.02979)"/>
</clipPath>
</defs>
</svg>
