<svg width="78" height="53" viewBox="0 0 78 53" fill="none" xmlns="http://www.w3.org/2000/svg">
<g clip-path="url(#clip0_133_2459)">
<path fill-rule="evenodd" clip-rule="evenodd" d="M0.451172 45.0765H38.965L76.6415 7.48926H0.451172V45.0765Z" fill="url(#paint0_linear_133_2459)"/>
<path fill-rule="evenodd" clip-rule="evenodd" d="M45.6739 15.0065H38.1386V32.6308L31.608 15.0065H25.0774L19.4678 29.7909C18.8817 26.0321 14.9466 24.7792 11.9325 23.7769C9.92309 23.1087 7.74622 22.1899 7.82995 21.104C7.82995 20.2687 9.00211 19.4335 11.2627 19.517C12.7698 19.6005 14.1094 19.6841 16.7886 21.0205L19.3841 16.51C16.956 15.2571 13.607 14.5054 10.9278 14.5054C7.74622 14.5054 5.067 15.5077 3.39249 17.2618C2.22033 18.4311 1.63425 19.9346 1.63425 21.6052C1.63425 23.8604 2.4715 25.531 4.22974 26.8674C5.73681 27.9533 7.6625 28.705 9.33701 29.2062C11.4302 29.8744 13.1047 30.3755 13.1047 31.6284C13.1047 32.0461 12.9372 32.4637 12.6023 32.7978C12.1 33.299 11.2627 33.5496 10.1743 33.5496C7.91367 33.466 6.32289 33.1319 3.81112 31.712L1.4668 36.306C3.97857 37.7259 6.65779 38.4777 9.67191 38.4777H10.3417C12.9372 38.3942 15.1141 37.8095 16.7886 36.473C16.8723 36.3895 16.956 36.306 17.0398 36.2224L16.8723 37.5589H23.2355L24.4076 34.6354C25.5798 35.0531 27.0031 35.3036 28.4265 35.3036C29.8498 35.3036 31.1894 35.0531 32.3616 34.719L33.1151 37.5589H44.5018V30.9602H46.9298C52.7906 30.9602 56.2234 27.9533 56.2234 23.0251C56.2234 17.4288 52.7906 15.0065 45.6739 15.0065ZM28.3427 30.125C27.5055 30.125 26.6682 29.9579 25.9147 29.7073L28.259 22.1899H28.3427L30.687 29.7073C30.0172 29.9579 29.18 30.125 28.3427 30.125ZM46.0926 25.7815H44.4181V19.7676H46.0926C48.2694 19.7676 50.0277 20.5193 50.0277 22.7746C50.0277 25.0298 48.2694 25.7815 46.0926 25.7815Z" fill="white"/>
</g>
<defs>
<linearGradient id="paint0_linear_133_2459" x1="38.5321" y1="7.48926" x2="38.5321" y2="45.0765" gradientUnits="userSpaceOnUse">
<stop stop-color="#00AEEF"/>
<stop offset="0.212" stop-color="#0097DC"/>
<stop offset="0.519" stop-color="#007CC5"/>
<stop offset="0.792" stop-color="#006CB8"/>
<stop offset="1" stop-color="#0066B3"/>
</linearGradient>
<clipPath id="clip0_133_2459">
<rect width="76.1904" height="37.5872" fill="white" transform="translate(0.498047 7.48828)"/>
</clipPath>
</defs>
</svg>
