<svg width="137" height="39" viewBox="0 0 137 39" fill="none" xmlns="http://www.w3.org/2000/svg">
<g clip-path="url(#clip0_153_4134)">
<path d="M30.1317 7.50717C30.1056 7.31646 29.939 7.21066 29.8007 7.19915C29.6635 7.18763 26.9751 7.14678 26.9751 7.14678C26.9751 7.14678 24.7267 4.9634 24.5046 4.74129C24.2826 4.51919 23.8488 4.58624 23.6801 4.63652C23.6781 4.63757 23.2579 4.76749 22.5508 4.98645C22.4324 4.603 22.2584 4.13154 22.0101 3.65799C21.2097 2.13047 20.0374 1.32271 18.6209 1.32062C18.6188 1.32062 18.6177 1.32062 18.6156 1.32062C18.5171 1.32062 18.4197 1.33005 18.3213 1.33842C18.2794 1.28813 18.2374 1.2389 18.1934 1.1907C17.5763 0.530662 16.7854 0.209024 15.8372 0.237311C14.0079 0.289696 12.1861 1.61082 10.7088 3.95763C9.66951 5.60877 8.8785 7.68321 8.65431 9.28928C6.5537 9.93988 5.08484 10.3946 5.05236 10.4051C3.99211 10.7382 3.95859 10.7707 3.82029 11.7702C3.71762 12.5255 0.943359 33.9779 0.943359 33.9779L24.1925 37.9989L34.269 35.4939C34.269 35.4939 30.1579 7.69787 30.1317 7.50717ZM21.3868 5.34685C20.8514 5.51239 20.2427 5.70097 19.5826 5.90527C19.569 4.97912 19.459 3.69047 19.0274 2.57678C20.4156 2.83975 21.0986 4.41023 21.3868 5.34685ZM18.3663 6.28243C17.1478 6.65957 15.8183 7.07132 14.4846 7.48413C14.8597 6.04775 15.5711 4.61767 16.4449 3.67999C16.7696 3.33112 17.2243 2.94242 17.7628 2.72031C18.2688 3.77638 18.3789 5.27142 18.3663 6.28243ZM15.8738 1.45471C16.3034 1.44529 16.6648 1.53958 16.9739 1.74283C16.4794 1.99951 16.0017 2.3683 15.5533 2.84918C14.3914 4.09592 13.5009 6.03099 13.1457 7.89796C12.0383 8.24053 10.955 8.57688 9.95758 8.8849C10.5873 5.94613 13.0503 1.53643 15.8738 1.45471Z" fill="#95BF47"/>
<path d="M29.8016 7.20002C29.6644 7.1885 26.976 7.14766 26.976 7.14766C26.976 7.14766 24.7277 4.96427 24.5056 4.74216C24.4228 4.65939 24.3107 4.61644 24.1934 4.59863L24.1944 37.9977L34.27 35.4937C34.27 35.4937 30.1589 7.69875 30.1327 7.50804C30.1065 7.31734 29.9389 7.21154 29.8016 7.20002Z" fill="#5E8E3E"/>
<path d="M18.6019 12.381L17.4317 16.7592C17.4317 16.7592 16.1263 16.1652 14.5789 16.2626C12.3095 16.4062 12.2854 17.8373 12.3085 18.1967C12.4321 20.1547 17.5836 20.5822 17.8728 25.169C18.1001 28.7772 15.9586 31.2455 12.8732 31.4404C9.16964 31.674 7.13086 29.4896 7.13086 29.4896L7.91559 26.1517C7.91559 26.1517 9.96796 27.7002 11.6107 27.5964C12.6836 27.5283 13.067 26.6556 13.0282 26.0385C12.8669 23.4843 8.67199 23.6351 8.40695 19.4381C8.18377 15.9064 10.5034 12.3275 15.6213 12.0049C17.593 11.8781 18.6019 12.381 18.6019 12.381Z" fill="white"/>
<path d="M47.5373 21.5488C46.3787 20.9201 45.7832 20.3902 45.7832 19.6617C45.7832 18.7348 46.6103 18.1394 47.902 18.1394C49.4056 18.1394 50.7482 18.7681 50.7482 18.7681L51.8071 15.5239C51.8071 15.5239 50.8334 14.7622 47.9675 14.7622C43.9792 14.7622 41.2152 17.0462 41.2152 20.2571C41.2152 22.0777 42.5058 23.4681 44.2276 24.4605C45.618 25.2544 46.1147 25.8176 46.1147 26.6447C46.1147 27.5052 45.4195 28.2003 44.1289 28.2003C42.2054 28.2003 40.389 27.2069 40.389 27.2069L39.2637 30.4511C39.2637 30.4511 40.9419 31.5765 43.7652 31.5765C47.8698 31.5765 50.8158 29.5574 50.8158 25.9163C50.8147 23.9648 49.3256 22.5744 47.5373 21.5488Z" fill="black"/>
<path d="M63.8879 14.7299C61.8687 14.7299 60.2799 15.6901 59.0558 17.1459L58.9893 17.1126L60.7433 7.94434H56.1753L51.7402 31.2792H56.3083L57.8306 23.3028C58.426 20.2904 59.9816 18.4376 61.4385 18.4376C62.4641 18.4376 62.8622 19.1327 62.8622 20.1261C62.8622 20.7548 62.7956 21.5165 62.6636 22.1452L60.9428 31.2803H65.5111L67.298 21.847C67.4968 20.8535 67.6296 19.6627 67.6296 18.8677C67.6278 16.2855 66.2708 14.7299 63.8879 14.7299Z" fill="black"/>
<path d="M77.9455 14.73C72.4503 14.73 68.8105 19.695 68.8105 25.2222C68.8105 28.7636 70.9945 31.6098 75.0994 31.6098C80.4945 31.6098 84.1355 26.7778 84.1355 21.1176C84.1355 17.8412 82.2153 14.73 77.9455 14.73ZM75.6948 28.1027C74.1389 28.1027 73.4768 26.7788 73.4768 25.1234C73.4768 22.509 74.8344 18.2392 77.3167 18.2392C78.9387 18.2392 79.4673 19.6295 79.4673 20.9867C79.4673 23.7996 78.1116 28.1027 75.6948 28.1027Z" fill="black"/>
<path d="M95.8365 14.73C92.7531 14.73 91.0034 17.4442 91.0034 17.4442H90.938L91.2029 14.995H87.1648C86.9665 16.6503 86.6015 19.165 86.2383 21.0521L83.0605 37.7667H87.6286L88.8855 31.0143H88.9856C88.9856 31.0143 89.9228 31.6098 91.6668 31.6098C97.0286 31.6098 100.537 26.1159 100.537 20.5544C100.537 17.4775 99.1792 14.73 95.8365 14.73ZM91.4673 28.1681C90.2815 28.1681 89.5798 27.5062 89.5798 27.5062L90.3413 23.2364C90.8713 20.3902 92.3604 18.5031 93.9496 18.5031C95.3399 18.5031 95.7698 19.7937 95.7698 21.0189C95.7698 23.9648 94.0157 28.1681 91.4673 28.1681Z" fill="black"/>
<path d="M107.05 8.17627C105.594 8.17627 104.436 9.33491 104.436 10.824C104.436 12.1811 105.296 13.108 106.587 13.108H106.653C108.077 13.108 109.301 12.1478 109.334 10.4603C109.334 9.1364 108.44 8.17627 107.05 8.17627Z" fill="black"/>
<path d="M100.662 31.2793H105.229L108.341 15.0947H103.74L100.662 31.2793Z" fill="black"/>
<path d="M119.959 15.0615H116.781L116.946 14.2998C117.211 12.7442 118.138 11.3538 119.66 11.3538C120.473 11.3538 121.116 11.5856 121.116 11.5856L122.01 8.01097C122.01 8.01097 121.216 7.61401 119.527 7.61401C117.905 7.61401 116.284 8.07743 115.059 9.13632C113.503 10.4602 112.775 12.3795 112.411 14.2998L112.28 15.0615H110.16L109.498 18.5042H111.617L109.201 31.2804H113.769L116.185 18.5042H119.33L119.959 15.0615Z" fill="black"/>
<path d="M130.949 15.0948C130.949 15.0948 128.093 22.2887 126.811 26.2157H126.744C126.657 24.951 125.619 15.0948 125.619 15.0948H120.819L123.568 29.9555C123.635 30.286 123.601 30.4855 123.468 30.7172C122.938 31.7428 122.045 32.7363 120.985 33.4647C120.125 34.0933 119.165 34.4903 118.404 34.7553L119.662 38.6282C120.589 38.4297 122.508 37.668 124.13 36.1457C126.216 34.1931 128.135 31.1807 130.12 27.076L135.714 15.0938H130.949V15.0948Z" fill="black"/>
</g>
<defs>
<clipPath id="clip0_153_4134">
<rect width="135.318" height="38.3927" fill="white" transform="translate(0.943359 0.235352)"/>
</clipPath>
</defs>
</svg>
