<svg width="130" height="34" viewBox="0 0 130 34" fill="none" xmlns="http://www.w3.org/2000/svg">
<path d="M41.8594 26.1696L43.4678 22.423C45.2059 23.7239 47.5148 24.4004 49.7977 24.4004C51.484 24.4004 52.5476 23.7499 52.5476 22.7612C52.5217 20.0033 42.456 22.1628 42.3782 15.242C42.3523 11.7296 45.4654 9.02368 49.8755 9.02368C52.4957 9.02368 55.1159 9.67413 56.9837 11.1572L55.4791 14.9818C53.7669 13.8891 51.6396 13.1085 49.6161 13.1085C48.2412 13.1085 47.3332 13.759 47.3332 14.5916C47.3591 17.2974 57.5026 15.8144 57.6064 22.423C57.6064 26.0135 54.5711 28.5372 50.2128 28.5372C47.0219 28.5372 44.0904 27.7827 41.8594 26.1696Z" fill="black"/>
<path d="M103.557 21.0698C102.752 22.4748 101.248 23.4375 99.5096 23.4375C96.9413 23.4375 94.8659 21.356 94.8659 18.7802C94.8659 16.2044 96.9413 14.123 99.5096 14.123C101.248 14.123 102.752 15.0857 103.557 16.4906L107.993 14.0189C106.332 11.0528 103.142 9.02344 99.5096 9.02344C94.1396 9.02344 89.7812 13.3945 89.7812 18.7802C89.7812 24.166 94.1396 28.537 99.5096 28.537C103.167 28.537 106.332 26.5336 107.993 23.5415L103.557 21.0698Z" fill="black"/>
<path d="M65.3954 0.931641H59.8438V28.1726H65.3954V0.931641Z" fill="black"/>
<path d="M110.203 0.931641V28.1726H115.755V20.0029L122.344 28.1726H129.452L121.073 18.4678L128.83 9.41353H122.033L115.755 16.9328V0.931641H110.203Z" fill="black"/>
<path d="M81.883 21.1218C81.0787 22.4488 79.4184 23.4375 77.5506 23.4375C74.9823 23.4375 72.9069 21.356 72.9069 18.7802C72.9069 16.2044 74.9823 14.123 77.5506 14.123C79.4184 14.123 81.0787 15.1637 81.883 16.5166V21.1218ZM81.883 9.41371V11.6252C80.975 10.0902 78.718 9.02344 76.3572 9.02344C71.4801 9.02344 67.6406 13.3424 67.6406 18.7542C67.6406 24.166 71.4801 28.537 76.3572 28.537C78.718 28.537 80.975 27.4703 81.883 25.9352V28.1467H87.4346V9.41371H81.883Z" fill="black"/>
<path d="M7.58314 21.0953C7.58314 22.9946 6.05255 24.5297 4.15876 24.5297C2.26497 24.5297 0.734375 22.9946 0.734375 21.0953C0.734375 19.196 2.26497 17.6609 4.15876 17.6609H7.58314V21.0953Z" fill="#E01E5A"/>
<path d="M9.26562 21.0953C9.26562 19.196 10.7962 17.6609 12.69 17.6609C14.5838 17.6609 16.1144 19.196 16.1144 21.0953V29.6812C16.1144 31.5806 14.5838 33.1156 12.69 33.1156C10.7962 33.1156 9.26562 31.5806 9.26562 29.6812V21.0953Z" fill="#E01E5A"/>
<path d="M12.7213 7.30578C10.8275 7.30578 9.29688 5.77072 9.29688 3.8714C9.29688 1.97208 10.8275 0.437012 12.7213 0.437012C14.615 0.437012 16.1456 1.97208 16.1456 3.8714V7.30578H12.7213Z" fill="#36C5F0"/>
<path d="M12.73 9.04883C14.6238 9.04883 16.1544 10.5839 16.1544 12.4832C16.1544 14.3825 14.6238 15.9176 12.73 15.9176H4.14314C2.24935 15.9176 0.71875 14.3825 0.71875 12.4832C0.71875 10.5839 2.24935 9.04883 4.14314 9.04883H12.73Z" fill="#36C5F0"/>
<path d="M26.3828 12.4835C26.3828 10.5841 27.9134 9.04907 29.8072 9.04907C31.701 9.04907 33.2316 10.5841 33.2316 12.4835C33.2316 14.3828 31.701 15.9178 29.8072 15.9178H26.3828V12.4835Z" fill="#2EB67D"/>
<path d="M24.7003 12.4834C24.7003 14.3827 23.1697 15.9178 21.276 15.9178C19.3822 15.9178 17.8516 14.3827 17.8516 12.4834V3.8714C17.8516 1.97208 19.3822 0.437012 21.276 0.437012C23.1697 0.437012 24.7003 1.97208 24.7003 3.8714V12.4834Z" fill="#2EB67D"/>
<path d="M21.276 26.2468C23.1697 26.2468 24.7003 27.7819 24.7003 29.6812C24.7003 31.5805 23.1697 33.1156 21.276 33.1156C19.3822 33.1156 17.8516 31.5805 17.8516 29.6812V26.2468H21.276Z" fill="#ECB22E"/>
<path d="M21.276 24.5299C19.3822 24.5299 17.8516 22.9948 17.8516 21.0955C17.8516 19.1962 19.3822 17.6611 21.276 17.6611H29.8629C31.7566 17.6611 33.2872 19.1962 33.2872 21.0955C33.2872 22.9948 31.7566 24.5299 29.8629 24.5299H21.276Z" fill="#ECB22E"/>
</svg>
