<svg width="137" height="35" viewBox="0 0 137 35" fill="none" xmlns="http://www.w3.org/2000/svg">
<path d="M28.7176 0.41626H6.00291C2.85173 0.41626 0.300781 2.96055 0.300781 6.1035V28.7589C0.300781 31.9018 2.85173 34.4461 6.00291 34.4461H28.7176C31.8688 34.4461 34.4198 31.9018 34.4198 28.7589V6.1035C34.4198 2.96055 31.8688 0.41626 28.7176 0.41626ZM28.2112 26.4765C28.2112 27.468 27.4046 28.2725 26.4105 28.2725H8.31002C7.3159 28.2725 6.50935 27.468 6.50935 26.4765V8.40458C6.50935 7.41306 7.3159 6.60861 8.31002 6.60861H26.4293C27.4234 6.60861 28.2299 7.41306 28.2299 8.40458V26.4765H28.2112Z" fill="#1A1A1A"/>
<path d="M13.7465 22.0427C13.165 22.0427 12.7148 21.575 12.7148 21.0138V13.8112C12.7148 13.2312 13.1838 12.7822 13.7465 12.7822H20.9867C21.5494 12.7822 22.0183 13.2499 22.0183 13.8112V21.0138C22.0183 21.5937 21.5494 22.0427 20.9867 22.0427H13.7465Z" fill="#1A1A1A"/>
<path d="M43.4727 21.5568H47.1865C47.3741 23.6708 48.7996 25.2984 51.6882 25.2984C54.2579 25.2984 55.8523 24.0262 55.8523 22.118C55.8523 20.322 54.6143 19.5176 52.3822 18.9938L49.4936 18.3764C46.3425 17.6842 43.9979 15.6824 43.9979 12.3898C43.9979 8.76047 47.2241 6.29102 51.4256 6.29102C55.871 6.29102 58.7221 8.61081 58.9659 12.0531H55.3646C54.9332 10.4442 53.6014 9.49009 51.4256 9.49009C49.1373 9.49009 47.5429 10.7248 47.5429 12.315C47.5429 13.9052 48.9122 14.8593 51.2756 15.3831L54.1266 16.0005C57.259 16.674 59.3973 18.5635 59.3973 21.8748C59.3973 26.0841 56.2274 28.591 51.6882 28.591C46.6051 28.591 43.7728 25.8409 43.4727 21.5568Z" fill="#1A1A1A"/>
<path d="M72.7224 34.4466V28.2729L72.9663 25.579H72.7224C71.8784 27.5246 70.0777 28.591 67.6393 28.591C63.7191 28.591 60.793 25.4106 60.793 20.5091C60.793 15.6263 63.7191 12.4272 67.6393 12.4272C70.0402 12.4272 71.7471 13.5497 72.7224 15.3083H72.9663V12.7453H76.1925V34.4653H72.7224V34.4466ZM72.8537 20.5091C72.8537 17.3849 70.9405 15.5515 68.5959 15.5515C66.2513 15.5515 64.338 17.3662 64.338 20.5091C64.338 23.6333 66.2513 25.4667 68.5959 25.4667C70.9405 25.4667 72.8537 23.6333 72.8537 20.5091Z" fill="#1A1A1A"/>
<path d="M78.7695 22.1183V12.7456H82.2396V21.819C82.2396 24.2697 83.4213 25.4671 85.4095 25.4671C87.8479 25.4671 89.4235 23.7272 89.4235 21.0333V12.7456H92.8936V28.292H89.6673V25.0742H89.4235C88.6545 27.1321 86.9851 28.5913 84.3966 28.5913C80.6827 28.5913 78.7695 26.2154 78.7695 22.1183Z" fill="#1A1A1A"/>
<path d="M95.0195 23.9515C95.0195 21.033 97.064 19.3306 100.684 19.1248L104.979 18.8442V17.6282C104.979 16.1689 103.91 15.2897 102.035 15.2897C100.29 15.2897 99.2586 16.1689 98.996 17.4224H95.526C95.8824 14.2607 98.5083 12.446 102.035 12.446C106.03 12.446 108.468 14.1485 108.468 17.4224V28.2917H105.242V25.4107H104.998C104.267 27.3189 102.747 28.5911 99.8213 28.5911C96.989 28.5911 95.0195 26.7016 95.0195 23.9515ZM104.979 22.0245V21.2014L101.472 21.4446C99.5775 21.5568 98.7334 22.2678 98.7334 23.6709C98.7334 24.8495 99.7088 25.71 101.078 25.71C103.535 25.71 104.979 24.1198 104.979 22.0245Z" fill="#1A1A1A"/>
<path d="M111.035 28.292V12.7456H114.261V15.7202H114.505C114.955 13.681 116.512 12.7456 118.838 12.7456H120.414V15.8698H118.425C116.175 15.8698 114.505 17.3291 114.505 20.0979V28.292H111.035Z" fill="#1A1A1A"/>
<path d="M136.306 21.1452H124.471C124.658 24.0075 126.665 25.6164 128.879 25.6164C130.773 25.6164 131.955 24.8494 132.63 23.5772H136.063C135.125 26.7389 132.349 28.591 128.841 28.591C124.246 28.591 121.02 25.1674 121.02 20.5091C121.02 15.8695 124.34 12.4272 128.879 12.4272C133.455 12.4272 136.438 15.5515 136.438 19.4428C136.419 20.2098 136.363 20.6026 136.306 21.1452ZM132.987 18.7506C132.874 16.5991 131.073 15.1399 128.879 15.1399C126.815 15.1399 125.071 16.4495 124.64 18.7506H132.987Z" fill="#1A1A1A"/>
</svg>
