<svg width="101" height="43" viewBox="0 0 101 43" fill="none" xmlns="http://www.w3.org/2000/svg">
<path fill-rule="evenodd" clip-rule="evenodd" d="M100.824 21.8521C100.824 14.674 97.3563 9.01001 90.7282 9.01001C84.0721 9.01001 80.0449 14.674 80.0449 21.7961C80.0449 30.236 84.7993 34.498 91.6231 34.498C94.9512 34.498 97.4682 33.7409 99.3699 32.6754V27.0675C97.4682 28.0209 95.2868 28.6097 92.5181 28.6097C89.8053 28.6097 87.4002 27.6563 87.0925 24.3477H100.768C100.768 23.9832 100.824 22.5251 100.824 21.8521ZM87.0086 19.1884C87.0086 16.0199 88.9383 14.702 90.7002 14.702C92.4062 14.702 94.224 16.0199 94.224 19.1884H87.0086Z" fill="#635BFF"/>
<path fill-rule="evenodd" clip-rule="evenodd" d="M69.2536 9.01001C66.5128 9.01001 64.7509 10.2998 63.7721 11.1971L63.4085 9.45864H57.2559V42.1528L64.2475 40.6667L64.2755 32.7315C65.2823 33.4605 66.7645 34.498 69.2256 34.498C74.2316 34.498 78.7902 30.4603 78.7902 21.5718C78.7622 13.4403 74.1477 9.01001 69.2536 9.01001ZM67.5756 28.3293C65.9255 28.3293 64.9467 27.7405 64.2755 27.0114L64.2475 16.6087C64.9747 15.7956 65.9815 15.2348 67.5756 15.2348C70.1205 15.2348 71.8824 18.0948 71.8824 21.768C71.8824 25.5253 70.1485 28.3293 67.5756 28.3293Z" fill="#635BFF"/>
<path fill-rule="evenodd" clip-rule="evenodd" d="M47.6387 7.35559L54.6583 5.84145V0.149414L47.6387 1.63551V7.35559Z" fill="#635BFF"/>
<path d="M54.6583 9.48682H47.6387V34.0215H54.6583V9.48682Z" fill="#635BFF"/>
<path fill-rule="evenodd" clip-rule="evenodd" d="M40.1113 11.5615L39.6639 9.48661H33.623V34.0213H40.6147V17.3938C42.2648 15.2347 45.0614 15.6273 45.9284 15.9357V9.48661C45.0335 9.15014 41.7614 8.53326 40.1113 11.5615Z" fill="#635BFF"/>
<path fill-rule="evenodd" clip-rule="evenodd" d="M26.1233 3.4021L19.2995 4.86016L19.2715 27.3199C19.2715 31.4697 22.3758 34.5261 26.5149 34.5261C28.8081 34.5261 30.4861 34.1055 31.409 33.6008V27.9087C30.5141 28.2732 26.0954 29.563 26.0954 25.4132V15.4591H31.409V9.48669H26.0954L26.1233 3.4021Z" fill="#635BFF"/>
<path fill-rule="evenodd" clip-rule="evenodd" d="M7.22206 16.6087C7.22206 15.5152 8.11699 15.0946 9.59923 15.0946C11.7247 15.0946 14.4095 15.7395 16.535 16.8891V10.2998C14.2137 9.37452 11.9205 9.01001 9.59923 9.01001C3.92199 9.01001 0.146484 11.9822 0.146484 16.9452C0.146484 24.6841 10.7738 23.4504 10.7738 26.7871C10.7738 28.0769 9.65516 28.4975 8.08903 28.4975C5.76779 28.4975 2.80332 27.5442 0.454118 26.2544V32.9278C3.05502 34.0494 5.68389 34.526 8.08903 34.526C13.9061 34.526 17.9053 31.638 17.9053 26.6189C17.8774 18.2631 7.22206 19.7492 7.22206 16.6087Z" fill="#635BFF"/>
</svg>
