<svg width="124" height="38" viewBox="0 0 124 38" fill="none" xmlns="http://www.w3.org/2000/svg">
<path d="M14.7499 27.6333C16.7242 27.6333 18.3245 26.0369 18.3245 24.0675C18.3245 22.0982 16.7242 20.5018 14.7499 20.5018C12.7756 20.5018 11.1752 22.0982 11.1752 24.0675C11.1752 26.0369 12.7756 27.6333 14.7499 27.6333ZM14.7499 18.3624C16.7242 18.3624 18.3245 16.7659 18.3245 14.7966C18.3245 12.8272 16.7242 11.2308 14.7499 11.2308C12.7756 11.2308 11.1752 12.8272 11.1752 14.7966C11.1752 16.7659 12.7756 18.3624 14.7499 18.3624ZM24.0441 27.6333C26.0184 27.6333 27.6188 26.0369 27.6188 24.0675C27.6188 22.0982 26.0184 20.5018 24.0441 20.5018C22.0698 20.5018 20.4693 22.0982 20.4693 24.0675C20.4693 26.0369 22.0698 27.6333 24.0441 27.6333ZM24.0441 18.3624C26.0184 18.3624 27.6188 16.7659 27.6188 14.7966C27.6188 12.8272 26.0184 11.2308 24.0441 11.2308C22.0698 11.2308 20.4693 12.8272 20.4693 14.7966C20.4693 16.7659 22.0698 18.3624 24.0441 18.3624ZM19.397 0.890137C29.4657 0.890137 37.9854 9.38855 37.9854 19.4321C37.9854 29.4756 29.4657 37.974 19.397 37.974C9.32829 37.974 0.808594 29.4756 0.808594 19.4321C0.808594 9.38864 9.32833 0.890137 19.397 0.890137ZM19.397 5.88219C11.9163 5.88219 5.81317 11.7592 5.81317 19.1831C5.81317 26.607 11.9163 32.9819 19.397 32.9819C26.8777 32.9819 32.9808 26.607 32.9808 19.1831C32.9808 11.7592 26.8777 5.88219 19.397 5.88219ZM59.0691 30.4859H64.91C65.1202 30.4859 65.2103 30.3961 65.2703 30.1864L67.2047 23.0631L69.0812 30.1864C69.1412 30.3961 69.2313 30.4859 69.4415 30.4859H75.28C75.5202 30.4859 75.6704 30.3961 75.7304 30.1864L79.8103 15.0818V30.1265C79.8103 30.3361 79.9604 30.4859 80.1706 30.4859H86.5964C86.8066 30.4859 86.9568 30.3361 86.9568 30.1265V14.4429C86.9568 14.2332 86.8066 14.0835 86.5964 14.0835L74.0754 14.0847C73.8652 14.0847 73.7451 14.1746 73.685 14.4142L72.2668 21.6641L70.8387 14.4142C70.8087 14.2045 70.6586 14.0847 70.4483 14.0847H64.0929C63.8826 14.0847 63.7325 14.2045 63.7025 14.4142L62.3118 21.6641L60.9256 14.4142C60.8655 14.1746 60.7455 14.0847 60.5352 14.0847L51.0473 14.0835V8.7406C51.0473 8.471 50.8612 8.35122 50.561 8.44106L44.5957 10.3604C44.3855 10.4203 44.2654 10.6001 44.2654 10.8097L44.2584 13.3276C44.2584 13.9566 43.9281 14.2261 43.2975 14.2261H41.7554C41.5451 14.2261 41.395 14.3759 41.395 14.5856V19.0741C41.395 19.2838 41.5451 19.4335 41.7554 19.4335H44.0624V24.8848C44.0624 28.7486 45.5866 30.9323 50.2408 30.9323C52.0425 30.9323 53.5152 30.7014 54.296 30.3419C54.5362 30.2222 54.622 30.0723 54.622 29.8328V25.5892C54.622 25.3495 54.3861 25.2297 54.0858 25.3795C53.6954 25.5592 53.2436 25.5892 52.7932 25.5892C51.5921 25.5892 51.2088 25.1399 51.2088 23.6423V19.4335H54.0067C54.2169 19.4335 54.357 19.2947 54.357 19.085V15.0818L58.6187 30.1864C58.6787 30.3961 58.8288 30.4859 59.0691 30.4859ZM79.8103 12.2983C79.8103 12.508 79.9604 12.6579 80.1706 12.6579H86.5964C86.8066 12.6579 86.9568 12.508 86.9568 12.2983V8.7406C86.9568 8.53089 86.8066 8.38117 86.5964 8.38117H80.1706C79.9604 8.38117 79.8103 8.53089 79.8103 8.7406V12.2983ZM88.3877 30.1265C88.3877 30.3361 88.5378 30.4859 88.748 30.4859H95.1809C95.391 30.4859 95.5406 30.3361 95.5406 30.1265V8.7406C95.5406 8.53089 95.391 8.38117 95.1809 8.38117H88.748C88.5378 8.38117 88.3877 8.53089 88.3877 8.7406V30.1265ZM96.971 30.1265C96.971 30.3361 97.1216 30.4859 97.3316 30.4859H103.746C103.957 30.4859 104.107 30.3361 104.107 30.1265L104.103 14.4429C104.103 14.2332 103.954 14.0835 103.744 14.0835H97.3279C97.1178 14.0835 96.9682 14.2332 96.9682 14.4429L96.971 30.1265ZM96.9682 12.2983C96.9682 12.508 97.1178 12.6579 97.3279 12.6579H103.746C103.957 12.6579 104.107 12.508 104.107 12.2983L104.103 8.7406C104.103 8.53089 103.954 8.38117 103.744 8.38117H97.3279C97.1178 8.38117 96.9682 8.53089 96.9682 8.7406V12.2983ZM105.231 22.4287C105.231 27.311 108.988 30.9851 114.484 30.9851C119.979 30.9851 123.704 27.311 123.704 22.4287V22.0393C123.704 17.1572 119.979 13.5842 114.484 13.5842C108.988 13.5842 105.231 17.1572 105.231 22.0393V22.4287ZM112.124 22.4416V22.1491C112.124 19.9027 113.162 19.0241 114.484 19.0241C115.805 19.0241 116.848 19.9027 116.848 22.1491V22.4416C116.848 24.6581 115.805 25.5851 114.484 25.5851C113.162 25.5851 112.124 24.6581 112.124 22.4416Z" fill="#F22F46"/>
</svg>
