<svg width="158" height="27" viewBox="0 0 158 27" fill="none" xmlns="http://www.w3.org/2000/svg">
<g clip-path="url(#clip0_133_2507)">
<path fill-rule="evenodd" clip-rule="evenodd" d="M42.926 0.0883789L29.5117 26.2652H16.9377L22.5298 15.4067H22.2712C17.6812 21.4176 10.7639 25.3603 0.9375 26.2652V15.5683C0.9375 15.5683 7.24063 15.2128 10.9255 11.3024H0.9375V0.0883789H12.1538V9.33106H12.4124L17.0024 0.0883789H25.5035V9.26643H25.7621L30.4814 0.0883789H42.926Z" fill="#146EF5"/>
<path d="M115.93 23.3889H119.55V2.64136H115.93V23.3889Z" fill="black"/>
<path fill-rule="evenodd" clip-rule="evenodd" d="M96.0335 23.1627C96.8093 23.4859 97.6174 23.6475 98.4255 23.6475C99.7831 23.6475 100.979 23.3243 102.013 22.6779C103.08 22.0316 103.888 21.1267 104.47 19.9633C105.052 18.7999 105.343 17.5072 105.343 16.0206C105.343 14.534 105.052 13.2414 104.438 12.0779C103.824 10.9145 103.015 10.042 101.949 9.39563C100.882 8.74928 99.6538 8.42611 98.2962 8.45843C97.4234 8.45843 96.6153 8.62002 95.8072 8.9755C94.9991 9.29867 94.3527 9.78343 93.8355 10.3975C93.8032 10.4298 93.7708 10.4944 93.7062 10.5267V2.64136H90.0859V23.3566H93.6739V21.4176C93.7708 21.5468 93.8678 21.6438 93.9648 21.7407C94.5466 22.3548 95.2254 22.8395 96.0335 23.1627ZM99.7184 19.8017C99.1366 20.1572 98.4578 20.3511 97.682 20.3511C96.9386 20.3511 96.2274 20.1572 95.6133 19.8017C94.9991 19.4139 94.482 18.8968 94.1264 18.2505C93.7708 17.6042 93.5769 16.8609 93.5769 16.0206C93.5769 15.1804 93.7385 14.4371 94.0941 13.7907C94.4496 13.1444 94.9668 12.6273 95.581 12.2395C96.1951 11.884 96.9063 11.6901 97.6497 11.6901C98.3931 11.6901 99.0719 11.8517 99.6861 12.2072C100.3 12.5627 100.753 13.0798 101.076 13.7261C101.399 14.3725 101.561 15.1157 101.561 15.9883C101.561 16.8286 101.399 17.5718 101.076 18.2505C100.785 18.9292 100.333 19.4462 99.7184 19.8017Z" fill="black"/>
<path d="M48.1719 3.90161H52.3093L55.9942 17.3778L59.9377 3.90161H63.364L67.6308 17.1193L71.1864 3.90161H74.9682L69.3762 23.3888H65.8206L61.4893 10.462L57.5134 23.3888H53.9255L48.1719 3.90161Z" fill="black"/>
<path fill-rule="evenodd" clip-rule="evenodd" d="M81.0481 23.7125C79.5936 23.7125 78.3006 23.3893 77.1693 22.7753C76.0056 22.1289 75.1329 21.224 74.4541 20.0606C73.8076 18.8972 73.4844 17.5722 73.4844 16.1179C73.4844 14.6637 73.8076 13.371 74.4864 12.2076C75.1652 11.0442 76.0703 10.1393 77.2016 9.49295C78.3653 8.84661 79.6259 8.52344 81.0481 8.52344C82.632 8.52344 84.0219 8.87893 85.2179 9.5899C86.4139 10.3009 87.3189 11.3027 87.9008 12.5954C88.5149 13.8881 88.7089 15.3747 88.5472 17.0228H77.2016C77.2339 17.7015 77.3955 18.2832 77.6865 18.8326C78.0097 19.4466 78.4946 19.899 79.0764 20.2222C79.6905 20.5454 80.337 20.7393 81.0805 20.7393C81.63 20.7393 82.1795 20.6423 82.6643 20.4484C83.1492 20.2545 83.5694 19.996 83.8926 19.6728C84.2482 19.3497 84.4744 18.9619 84.6361 18.574H88.4179C88.1917 19.5759 87.7391 20.4808 87.028 21.2887C86.3492 22.0643 85.4765 22.6783 84.4421 23.1308C83.4401 23.5186 82.3088 23.7448 81.0481 23.7125ZM77.7188 13.3387C77.4925 13.6942 77.3632 14.1143 77.2663 14.5344H84.7977C84.733 13.985 84.5714 13.5003 84.3128 13.0801C83.9896 12.5631 83.5694 12.1429 83.0199 11.8844C82.4704 11.5936 81.8562 11.432 81.1774 11.432C80.434 11.432 79.7875 11.5936 79.1734 11.949C78.5592 12.2722 78.0743 12.7247 77.7188 13.3387Z" fill="black"/>
<path d="M108.023 8.78176C108.023 7.58602 108.281 6.55188 108.831 5.647C109.38 4.7098 110.124 3.99883 111.093 3.48176C112.063 2.96468 113.227 2.70615 114.52 2.67383V5.90554C113.906 5.90554 113.388 6.03481 112.968 6.29334C112.548 6.51956 112.225 6.87505 111.998 7.32749C111.772 7.74761 111.675 8.23237 111.643 8.78176H114.455V11.8519H111.643V23.3891H108.023V11.8519H105.695V8.78176H108.023Z" fill="black"/>
<path fill-rule="evenodd" clip-rule="evenodd" d="M128.753 23.6797C127.267 23.6797 125.974 23.3565 124.81 22.7102C123.646 22.0638 122.741 21.159 122.095 19.9955C121.448 18.8321 121.125 17.5394 121.125 16.0529C121.125 14.5663 121.448 13.2736 122.095 12.1102C122.741 10.9468 123.679 10.0419 124.81 9.39554C125.974 8.7492 127.299 8.42603 128.753 8.42603C130.24 8.42603 131.566 8.7492 132.729 9.39554C133.893 10.0419 134.83 10.9468 135.477 12.1102C136.123 13.2736 136.446 14.5986 136.479 16.0529C136.479 17.5071 136.123 18.8321 135.477 19.9955C134.83 21.159 133.925 22.0315 132.762 22.7102C131.566 23.3565 130.24 23.6797 128.753 23.6797ZM128.753 20.3833C129.529 20.3833 130.208 20.2218 130.822 19.8663C131.436 19.5108 131.889 18.9937 132.212 18.3474C132.535 17.701 132.697 16.9577 132.697 16.1175C132.697 15.2772 132.535 14.534 132.212 13.8553C131.889 13.209 131.436 12.6919 130.822 12.3364C130.208 11.9809 129.529 11.787 128.753 11.787C127.978 11.787 127.299 11.9809 126.717 12.3364C126.135 12.6919 125.683 13.1766 125.327 13.8553C125.004 14.5016 124.842 15.2449 124.842 16.1175C124.842 16.9577 125.004 17.701 125.327 18.3474C125.65 18.9937 126.135 19.5108 126.717 19.8663C127.299 20.1894 127.978 20.3833 128.753 20.3833Z" fill="black"/>
<path d="M140.361 8.78198H136.32L140.684 23.357H144.207L147.084 14.0497L150.187 23.357H153.646L158.01 8.78198H154.357L151.9 17.8631L149.153 8.78198H145.63L142.914 18.057L140.361 8.78198Z" fill="black"/>
</g>
<defs>
<clipPath id="clip0_133_2507">
<rect width="157.061" height="26.1768" fill="white" transform="translate(0.9375 0.0883789)"/>
</clipPath>
</defs>
</svg>
