<svg width="122" height="49" viewBox="0 0 122 49" fill="none" xmlns="http://www.w3.org/2000/svg">
<g clip-path="url(#clip0_133_39)">
<mask id="mask0_133_39" style="mask-type:luminance" maskUnits="userSpaceOnUse" x="0" y="-1" width="122" height="50">
<path d="M121.856 -0.000488281H0.412109V48.8629H121.856V-0.000488281Z" fill="white"/>
</mask>
<g mask="url(#mask0_133_39)">
<path d="M35.5435 22.4343C40.2187 11.4627 51.0993 3.77025 63.7771 3.77025C76.4514 3.77025 87.3359 11.4627 92.0069 22.4378H92.0111C92.2811 23.1821 92.9935 23.7123 93.8286 23.7123C94.8958 23.7123 95.7596 22.8451 95.7596 21.7812C95.7596 21.5215 95.7175 21.2792 95.6259 21.051C90.3434 8.67146 78.0694 -0.000488281 63.7736 -0.000488281C49.4778 -0.000488281 37.2072 8.66802 31.9318 21.0369C31.8335 21.2617 31.7949 21.5179 31.7949 21.7778C31.7949 22.8451 32.6584 23.7088 33.7254 23.7088C34.5607 23.7088 35.2522 23.1857 35.5435 22.4343Z" fill="#F38B00"/>
<path d="M18.1419 42.4148C18.0366 42.7413 17.7908 42.9485 17.331 42.9485H14.7548C14.3336 42.9485 14.1195 42.8291 14.0142 42.4148L11.5818 33.318C11.3362 32.3982 11.2309 31.3274 11.087 30.2565C10.9817 31.3274 10.8412 32.4263 10.5955 33.318L8.1632 42.4148C8.093 42.7413 7.81221 42.9485 7.35241 42.9485H4.74105C4.31986 42.9485 4.10576 42.8291 4.00047 42.4148L0.434408 29.3332C0.329111 28.8872 0.609903 28.6169 0.999501 28.6169H2.65618C3.11246 28.6169 3.36166 28.7679 3.46696 29.2138L5.72733 38.5493C5.96952 39.6201 6.04323 40.7191 6.14852 41.7303C6.32402 40.7472 6.46441 39.592 6.74871 38.581L9.25479 29.1857C9.36008 28.7995 9.67951 28.6204 10.1041 28.6204H12.1469C12.5681 28.6204 12.9227 28.8311 13.028 29.2173L15.5691 38.5844C15.8534 39.5956 15.9938 40.7261 16.1342 41.7337C16.2746 40.7507 16.4185 39.5956 16.629 38.5844L18.7104 29.1892C18.7806 28.803 19.1316 28.6239 19.5563 28.6239H21.1077C21.4973 28.6239 21.7781 28.8627 21.6728 29.3086L18.1419 42.4148Z" fill="#005CB9"/>
<path d="M31.9362 43.0856C27.8472 43.0856 25.1621 40.2733 25.1621 35.6916C25.1621 31.1414 27.8437 28.3748 31.9362 28.3748C36.0322 28.3748 38.6401 31.1414 38.6401 35.6916C38.6366 40.2698 36.0288 43.0856 31.9362 43.0856ZM31.866 30.369C29.4337 30.369 28.0929 32.1209 28.0929 35.6916C28.0929 39.3499 29.4337 41.1194 31.866 41.1194C34.2984 41.1194 35.6391 39.3499 35.6391 35.6916C35.6391 32.1209 34.3019 30.369 31.866 30.369Z" fill="#005CB9"/>
<path d="M51.8198 30.6395C51.7145 31.0574 51.3986 31.3207 50.7949 31.1732C50.3 31.0574 49.4927 30.8467 48.8224 30.8467C47.7974 30.8467 46.4216 32.0123 46.4216 34.5964V42.359C46.4216 42.6856 46.0705 42.9524 45.681 42.9524H44.3402C43.9541 42.9524 43.5996 42.6856 43.5996 42.359V29.2142C43.5996 28.8595 43.9541 28.6173 44.3402 28.6173H45.1545C45.509 28.6173 45.7898 28.7683 45.8951 29.0667L46.39 30.6712C47.3798 29.2738 48.7171 28.375 50.3421 28.375C51.4688 28.375 52.3533 28.8244 52.1743 29.4178L51.8198 30.6395Z" fill="#005CB9"/>
<path d="M84.0393 42.8256H83.2987C82.7687 42.8256 82.4879 42.6465 82.3826 42.2287L82.0983 41.0385C81.0769 42.492 79.8063 43.0608 77.9742 43.0608C74.3415 43.0608 72.4355 40.5785 72.4355 35.7651C72.4355 32.8194 72.9305 31.3624 74.1309 29.9966C75.0469 28.9539 76.5667 28.3887 78.0795 28.3887C79.8099 28.3887 81.112 29.1014 82.0316 30.4987V22.413C82.0316 22.0549 82.3861 21.8162 82.7722 21.8162H84.0428C84.4324 21.8162 84.7834 22.0549 84.7834 22.413V42.2287C84.7801 42.5587 84.4253 42.8256 84.0393 42.8256ZM78.6762 30.3513C77.6162 30.3513 76.8054 30.7375 76.314 31.5099C75.8191 32.2858 75.4295 33.5637 75.4295 35.7335C75.4295 39.5394 76.4193 41.0982 78.641 41.0982C80.933 41.0982 82.0948 39.3638 82.0948 35.7932C82.0948 32.2506 80.8242 30.3513 78.6762 30.3513Z" fill="#005CB9"/>
<path d="M67.9967 42.9592H65.8451C65.4906 42.9592 65.2098 42.752 64.9992 42.4536L59.5658 35.5547V42.3658C59.5658 42.6923 59.2113 42.9627 58.8218 42.9627H57.5512C57.165 42.9627 56.8105 42.6923 56.8105 42.3658V22.5011C56.8105 22.1465 57.1616 21.9077 57.5512 21.9077H58.8218C59.2113 21.9077 59.5658 22.1465 59.5658 22.5011V35.2843L65.1641 29.0735C65.3396 28.8347 65.6204 28.6277 66.0802 28.6277H67.9826C68.4775 28.6277 68.653 29.0454 68.3722 29.3403L62.4229 35.3159L68.3827 42.243C68.6319 42.5414 68.4915 42.9592 67.9967 42.9592Z" fill="#005CB9"/>
<path d="M105.555 29.2139C105.407 28.8909 105.779 28.6276 106.19 28.6276H107.85C108.292 28.6276 108.629 28.8347 108.78 29.2139L112.062 37.8754C112.212 38.2861 112.36 38.9005 112.433 39.3709C112.546 38.9321 112.767 38.079 113.027 37.3452L115.666 29.1823C115.779 28.7996 116.115 28.624 116.561 28.624H118.162C118.569 28.624 118.906 28.8873 118.793 29.2104L113.321 44.9393C112.764 46.5508 111.682 47.8147 109.822 48.5204L109.04 48.8118C108.706 48.9312 108.26 48.8399 108.071 48.5521L107.551 47.7305C107.401 47.4952 107.587 47.0283 107.924 46.9054L108.478 46.6983C109.872 46.1927 110.893 44.6725 111.335 42.7309L105.555 29.2139Z" fill="#005CB9"/>
<path d="M96.0932 28.3853C91.9974 28.3853 89.5996 31.1589 89.5996 35.7126C89.5996 40.3013 92.0571 43.0469 95.8863 43.0469H95.8896C97.5321 43.0469 98.596 42.4781 99.617 41.0176L99.8946 42.2464C99.9997 42.6641 100.284 42.8432 100.814 42.8432H101.555C101.944 42.8432 102.299 42.5764 102.299 42.2464L102.306 35.6774V35.6739C102.309 31.1167 100.197 28.3853 96.0932 28.3853ZM96.0267 41.0737C93.5869 41.0737 92.5373 39.3744 92.5373 35.7126C92.5373 32.1384 93.5903 30.3829 96.0267 30.3829C98.4623 30.3829 99.6137 32.1384 99.6137 35.7126C99.6103 39.3744 98.4623 41.0737 96.0267 41.0737Z" fill="#005CB9"/>
<path d="M120.678 39.1534C120.914 39.2517 121.124 39.3957 121.306 39.5817C121.482 39.7608 121.618 39.9679 121.71 40.1962C121.805 40.4314 121.854 40.6736 121.854 40.9335C121.854 41.1968 121.805 41.4391 121.707 41.6743C121.612 41.9131 121.471 42.1131 121.289 42.2922C121.103 42.4712 120.892 42.6117 120.66 42.71C120.429 42.8048 120.183 42.854 119.93 42.854C119.674 42.854 119.428 42.8013 119.194 42.7065C118.962 42.6047 118.748 42.4572 118.565 42.2712C118.386 42.0921 118.253 41.885 118.157 41.6567C118.06 41.4215 118.014 41.1862 118.014 40.93C118.014 40.7545 118.042 40.5859 118.084 40.4138C118.133 40.2488 118.2 40.0874 118.295 39.9259C118.47 39.6345 118.698 39.4062 118.983 39.2447C119.27 39.0797 119.586 39.0024 119.93 39.0024C120.19 39.0024 120.443 39.0516 120.678 39.1534ZM119.323 39.4378C119.13 39.5116 118.965 39.6274 118.814 39.7748C118.653 39.9293 118.54 40.1084 118.453 40.3085C118.369 40.5052 118.327 40.7123 118.327 40.9229C118.327 41.1336 118.365 41.3407 118.442 41.5303C118.522 41.72 118.639 41.8955 118.786 42.0429C118.94 42.1974 119.116 42.3203 119.309 42.4045C119.506 42.4888 119.709 42.531 119.924 42.531C120.131 42.531 120.331 42.4888 120.527 42.4116C120.723 42.3308 120.903 42.215 121.061 42.064C121.208 41.92 121.324 41.7515 121.408 41.5549C121.489 41.3653 121.531 41.1617 121.531 40.9545C121.531 40.7264 121.492 40.5157 121.415 40.3191C121.342 40.126 121.222 39.9504 121.075 39.7995C120.917 39.6414 120.744 39.5186 120.552 39.4378C120.358 39.3571 120.148 39.315 119.927 39.315C119.713 39.3185 119.509 39.3605 119.323 39.4378ZM119.969 39.824C120.268 39.824 120.499 39.8767 120.65 39.9785C120.804 40.0838 120.878 40.2313 120.878 40.4419C120.878 40.5859 120.836 40.7017 120.755 40.8C120.671 40.9019 120.555 40.9721 120.411 41.0072L120.888 41.9622H120.31L119.903 41.0879H119.649V41.9622H119.13V39.8276H119.969V39.824ZM119.653 40.772H119.906C120.06 40.772 120.169 40.7439 120.239 40.6983C120.31 40.6491 120.344 40.5789 120.344 40.47C120.344 40.3647 120.306 40.284 120.232 40.2313C120.152 40.1786 120.035 40.1505 119.877 40.1505H119.649V40.772H119.653Z" fill="#005CB9"/>
</g>
</g>
<defs>
<clipPath id="clip0_133_39">
<rect width="121.444" height="48.8634" fill="white" transform="translate(0.380859)"/>
</clipPath>
</defs>
</svg>
