<svg width="131" height="37" viewBox="0 0 131 37" fill="none" xmlns="http://www.w3.org/2000/svg">
<g clip-path="url(#clip0_133_92)">
<path d="M30.9302 24.9349L30.9118 24.8764L42.5493 14.2226V9.08936H23.8789V14.2226H35.0308L35.0491 14.2718L23.5254 24.9349V30.0683H42.7367V24.9349H30.9302Z" fill="#201515"/>
<path d="M54.2032 8.60059C52.0497 8.60059 50.2945 8.92539 48.9378 9.57499C47.6742 10.1411 46.6096 11.0739 45.8824 12.2523C45.1869 13.4384 44.75 14.7583 44.6008 16.1253L50.2657 16.9214C50.4707 15.7144 50.8806 14.8589 51.4952 14.3548C52.1942 13.8275 53.0554 13.5611 53.9297 13.6017C55.0794 13.6017 55.9134 13.9091 56.4319 14.5238C56.9453 15.1386 57.2065 15.99 57.2065 17.112V17.6714H51.7596C48.987 17.6714 46.9952 18.2862 45.7842 19.5157C44.573 20.7452 43.9686 22.3682 43.9707 24.3846C43.9707 26.4502 44.5751 27.9872 45.7842 28.9953C46.9931 30.0036 48.5137 30.5046 50.3458 30.4983C52.6182 30.4983 54.3663 29.7167 55.5896 28.1532C56.312 27.1922 56.828 26.0924 57.1049 24.9225H57.3109L58.0918 30.0557H63.2251V17.0567C63.2251 14.3701 62.517 12.2892 61.1011 10.8138C59.6849 9.33833 57.3858 8.60059 54.2032 8.60059ZM55.9984 24.6244C55.1838 25.3037 54.1174 25.6418 52.7894 25.6418C51.695 25.6418 50.9348 25.4502 50.5086 25.067C50.3011 24.8857 50.1356 24.6609 50.0246 24.4086C49.9136 24.1562 49.8594 23.8825 49.8663 23.607C49.854 23.347 49.8951 23.0874 49.9864 22.8438C50.0778 22.6002 50.2178 22.3777 50.3979 22.1899C50.5927 22.0072 50.8225 21.8659 51.0735 21.7745C51.3246 21.6831 51.5913 21.6435 51.8581 21.6581H57.2157V22.0116C57.2267 22.5113 57.1225 23.0068 56.9115 23.4598C56.7002 23.9128 56.388 24.3113 55.9984 24.6244Z" fill="#201515"/>
<path d="M94.2697 9.08936H88.2051V30.0711H94.2697V9.08936Z" fill="#201515"/>
<path d="M130.071 9.08936C128.358 9.08936 127.007 9.69386 126.02 10.9029C125.311 11.7718 124.772 13.0556 124.403 14.7544H124.224L123.432 9.08936H118.252V30.0683H124.317V19.3098C124.317 17.9532 124.634 16.9132 125.27 16.1899C125.905 15.4665 127.077 15.1048 128.786 15.1048H131.088V9.08936H130.071Z" fill="#201515"/>
<path d="M112.239 9.77516C110.823 8.93294 109.037 8.51286 106.881 8.5149C103.488 8.5149 100.832 9.48111 98.9139 11.4135C96.9957 13.3459 96.0368 16.0099 96.0368 19.4054C95.9879 21.4583 96.436 23.4925 97.3431 25.3348C98.1734 26.9764 99.4665 28.339 101.063 29.2538C102.669 30.1823 104.58 30.6475 106.795 30.6493C108.711 30.6493 110.312 30.3543 111.596 29.7643C112.804 29.2342 113.856 28.4033 114.652 27.3513C115.409 26.3184 115.972 25.1558 116.312 23.9209L111.086 22.4577C110.866 23.2608 110.443 23.9934 109.857 24.5848C109.266 25.175 108.278 25.4701 106.89 25.4701C105.241 25.4701 104.011 24.9977 103.202 24.053C102.615 23.3706 102.246 22.3962 102.083 21.1329H116.392C116.45 20.5427 116.481 20.0478 116.481 19.6482V18.3419C116.515 16.5869 116.153 14.8468 115.42 13.2516C114.735 11.7985 113.626 10.5867 112.239 9.77516ZM106.706 13.516C109.165 13.516 110.559 14.726 110.889 17.1462H102.19C102.329 16.3387 102.663 15.5775 103.165 14.93C103.962 13.9853 105.142 13.5139 106.706 13.516Z" fill="#201515"/>
<path d="M91.295 0.633316C90.8387 0.6178 90.384 0.694153 89.9579 0.857845C89.5317 1.02154 89.143 1.26922 88.8145 1.58618C88.4907 1.90617 88.2368 2.29002 88.069 2.71332C87.9012 3.13664 87.8232 3.59017 87.8402 4.0452C87.8237 4.50316 87.902 4.95958 88.0697 5.38598C88.2378 5.8124 88.4917 6.19963 88.8158 6.52352C89.1401 6.8474 89.5275 7.101 89.954 7.26851C90.3806 7.43602 90.8372 7.51381 91.295 7.49706C91.75 7.51426 92.2039 7.43649 92.6271 7.26872C93.0504 7.10098 93.4342 6.84688 93.754 6.52265C94.0713 6.19508 94.3189 5.80674 94.482 5.38098C94.6454 4.95521 94.7208 4.50086 94.7037 4.0452C94.7247 3.59224 94.6511 3.13987 94.4873 2.717C94.3237 2.29413 94.0737 1.91005 93.7533 1.58927C93.4326 1.26849 93.0488 1.01807 92.6261 0.853999C92.2033 0.689928 91.751 0.61582 91.2981 0.636393L91.295 0.633316Z" fill="#201515"/>
<path d="M78.7698 8.51489C76.7044 8.51489 75.0446 9.16345 73.7904 10.4606C72.8619 11.4217 72.1808 12.8561 71.7463 14.7639H71.5526L70.7597 9.0989H65.5801V36.0993H71.6447V24.9782H71.8662C72.0512 25.7197 72.3107 26.4406 72.6408 27.1298C73.1538 28.2526 73.9951 29.1936 75.0537 29.8287C76.1513 30.4276 77.3877 30.7257 78.6376 30.6925C81.1768 30.6925 83.1102 29.7038 84.4381 27.7261C85.7658 25.7487 86.4299 22.9895 86.4299 19.4485C86.4299 16.0283 85.7875 13.351 84.5025 11.4166C83.2178 9.48213 81.3069 8.51489 78.7698 8.51489ZM79.3847 23.7179C78.6777 24.7426 77.5712 25.2549 76.0649 25.2549C75.444 25.2835 74.8249 25.1638 74.2595 24.9056C73.6938 24.6475 73.1981 24.2582 72.813 23.7702C72.028 22.7846 71.6366 21.4351 71.6387 19.722V19.3224C71.6387 17.5826 72.03 16.2506 72.813 15.3264C73.5957 14.4023 74.6797 13.9453 76.0649 13.9555C77.5979 13.9555 78.7114 14.4422 79.4062 15.4156C80.1009 16.389 80.4483 17.7466 80.4483 19.4884C80.4524 21.2896 80.0998 22.6995 79.3907 23.7179H79.3847Z" fill="#201515"/>
<path d="M21.1869 24.9348H0.205078V30.0743H21.1869V24.9348Z" fill="#FF4F00"/>
</g>
<defs>
<clipPath id="clip0_133_92">
<rect width="130.884" height="35.6005" fill="white" transform="translate(0.205078 0.631348)"/>
</clipPath>
</defs>
</svg>
