<svg width="128" height="30" viewBox="0 0 128 30" fill="none" xmlns="http://www.w3.org/2000/svg">
<g clip-path="url(#clip0_153_4113)">
<path d="M27.5589 29.1313H4.97127C3.47282 29.1313 2.08538 28.3561 1.3639 27.0271C0.586935 25.4766 0.864424 23.6493 2.08538 22.4864L17.7913 6.81556H6.52521C3.41733 6.81556 0.919922 4.26835 0.919922 1.22278H21.7316C23.2301 1.22278 24.6175 1.99801 25.339 3.32699C26.116 4.87747 25.8385 6.70481 24.6175 7.86767L8.91162 23.5385H21.9536C25.0615 23.5385 27.5589 26.0857 27.5589 29.1313ZM117.021 0.779785C113.803 0.779785 110.861 2.16414 108.863 4.43447C106.865 2.21951 103.924 0.779785 100.705 0.779785C94.7113 0.779785 89.772 5.8742 89.772 11.8546V29.1313C92.8799 29.1313 95.3773 26.6395 95.3773 23.5385V11.7992C95.3773 8.91977 97.5972 6.48331 100.483 6.37257C103.535 6.26182 106.033 8.69828 106.033 11.6885V23.5385C106.033 26.6395 108.53 29.1313 111.638 29.1313V11.7992C111.638 8.91977 113.858 6.48331 116.744 6.37257C119.796 6.26182 122.294 8.69828 122.294 11.6885V23.5385C122.294 26.6395 124.791 29.1313 127.899 29.1313V11.8546C127.955 5.8742 123.015 0.779785 117.021 0.779785ZM55.8628 15.177C55.8628 23.0955 49.3696 29.5743 41.4334 29.5743C33.4417 29.5743 27.0039 23.0955 27.0039 15.177C27.0039 7.25855 33.4972 0.779785 41.4334 0.779785C49.3696 0.779785 55.8628 7.25855 55.8628 15.177ZM50.2575 15.177C50.2575 10.3041 46.3172 6.37257 41.4334 6.37257C36.5496 6.37257 32.6092 10.3041 32.6092 15.177C32.6092 20.05 36.5496 23.9815 41.4334 23.9815C46.3172 23.9815 50.2575 20.05 50.2575 15.177ZM86.9971 15.177C86.9971 23.0955 80.5039 29.5743 72.5677 29.5743C64.576 29.5743 58.1382 23.0955 58.1382 15.177C58.1382 7.25855 64.6315 0.779785 72.5677 0.779785C80.5039 0.779785 86.9971 7.25855 86.9971 15.177ZM81.3918 15.177C81.3918 10.3041 77.4515 6.37257 72.5677 6.37257C67.6839 6.37257 63.7435 10.3041 63.7435 15.177C63.7435 20.05 67.6839 23.9815 72.5677 23.9815C77.4515 23.9815 81.3918 20.05 81.3918 15.177Z" fill="#0B5CFF"/>
</g>
<defs>
<clipPath id="clip0_153_4113">
<rect width="127.035" height="28.7945" fill="white" transform="translate(0.896484 0.779541)"/>
</clipPath>
</defs>
</svg>
